<svg xmlns="http://www.w3.org/2000/svg" width="395" height="395" viewBox="0 0 395 395" fill="none"><path opacity="0.7" d="M386.461 69.6713L344.196 9.24292L301.931 69.6713H325.651V172.602H362.742V69.6713H386.461Z" fill="url(#paint0_linear_826_170)"></path><path opacity="0.7" d="M321.537 99.7773L308.08 80.5408L294.624 99.7773H302.175V132.549H313.985V99.7773H321.537Z" fill="url(#paint1_linear_826_170)"></path><path opacity="0.7" d="M371.109 121.68L357.653 102.443L344.196 121.68H351.747V154.445H363.558V121.68H371.109Z" fill="url(#paint2_linear_826_170)"></path><path opacity="0.7" d="M64.8393 330.859L44.4507 301.708L24.0621 330.859H35.5039V380.51H53.3974V330.859H64.8393Z" fill="url(#paint3_linear_826_170)"></path><path opacity="0.7" d="M33.5158 345.381L27.0246 336.099L20.54 345.381H24.1806V361.188H29.8752V345.381H33.5158Z" fill="url(#paint4_linear_826_170)"></path><path opacity="0.7" d="M57.4264 360.444L50.9418 351.168L44.4507 360.444H48.0912V376.251H53.7858V360.444H57.4264Z" fill="url(#paint5_linear_826_170)"></path><path d="M358.304 247.086C358.212 247.777 358.12 248.481 358.015 249.173C347.745 319.608 280.259 384.743 190.798 367.107C103.371 349.878 65.965 301.161 45.1222 230.641C44.4243 228.284 43.7397 225.894 43.0813 223.491C22.6401 149.113 56.9327 90.7909 97.3346 73.6413C137.737 56.4983 174.32 83.536 206.631 90.1325C206.631 90.1325 207.467 90.3695 208.988 90.8172C221.509 94.517 280.707 112.292 309.515 126.4C341.826 142.226 367.547 175.861 358.311 247.086H358.304Z" fill="#FFFDEE"></path><path d="M358.015 249.173C347.745 319.608 280.259 384.743 190.798 367.107C103.371 349.878 65.965 301.161 45.1222 230.641C114.227 308.166 285.091 207.27 358.021 249.173H358.015Z" fill="#FFF2D4"></path><mask id="mask0_826_170" style="mask-type:luminance" maskUnits="userSpaceOnUse" x="36" y="24" width="325" height="347"><path d="M358.304 247.086C358.212 247.777 358.12 248.481 358.015 249.173C347.745 319.608 280.259 384.743 190.798 367.107C103.371 349.878 65.965 301.161 45.1222 230.641C44.4243 228.284 43.7397 225.894 43.0813 223.491C22.6401 149.113 56.9327 90.7909 97.3346 73.6413C137.737 56.4983 182.549 18.6112 214.86 25.2077C214.86 25.2077 266.441 42.0479 267.961 42.4956C280.483 46.1954 280.707 112.292 309.515 126.4C341.826 142.226 367.547 175.861 358.311 247.086H358.304Z" fill="white"></path></mask><g mask="url(#mask0_826_170)"><path d="M108.948 259.937C107.743 257.033 108.375 252.451 109.955 252.596C111.535 252.741 112.647 254.69 113.121 257.488C113.595 260.292 108.948 259.937 108.948 259.937Z" fill="#FFB3AE"></path><path d="M123.668 203.767L124.675 265.275H127.177L123.668 203.767Z" fill="#5FBA24"></path><path d="M144.61 224.735C144.61 224.735 142.588 228.968 139.264 232.214C135.636 235.742 130.462 238.099 124.675 232.517C125.63 229.159 126.953 226.75 129.04 225.268C132.128 223.076 136.887 222.912 144.61 224.729V224.735Z" fill="#5FBA24"></path><path d="M124.675 232.523C130.475 226.052 140.91 225.92 140.91 225.92" stroke="#83DB49" stroke-width="0.658333" stroke-miterlimit="10" stroke-linecap="round"></path><path d="M134.642 226.882L139.461 228.297" stroke="#83DB49" stroke-width="0.658333" stroke-miterlimit="10" stroke-linecap="round"></path><path d="M131.798 227.586L133.635 225.394" stroke="#83DB49" stroke-width="0.658333" stroke-miterlimit="10" stroke-linecap="round"></path><path d="M128.816 229.219L133.635 230.937" stroke="#83DB49" stroke-width="0.658333" stroke-miterlimit="10" stroke-linecap="round"></path><path d="M124.135 228.297C124.135 228.297 115.419 235.822 106.966 230.081C102.549 227.066 101.304 222.609 101.127 219.027C100.962 215.762 101.686 213.241 101.686 213.241C101.686 213.241 105.649 214.564 113.042 215.881C115.715 216.355 117.802 217.079 119.409 218.178C122.259 220.12 123.622 223.234 124.129 228.297H124.135Z" fill="#5FBA24"></path><path d="M124.135 228.297C120.172 223.28 111.324 220.239 107.493 219.449" stroke="#83DB49" stroke-width="0.658333" stroke-miterlimit="10" stroke-linecap="round"></path><path d="M107.499 221.694L110.804 220.344" stroke="#83DB49" stroke-width="0.658333" stroke-miterlimit="10" stroke-linecap="round"></path><path d="M116.703 222.74L114.761 219.449" stroke="#83DB49" stroke-width="0.658333" stroke-miterlimit="10" stroke-linecap="round"></path><path d="M121.068 225.394L116.703 226.493" stroke="#83DB49" stroke-width="0.658333" stroke-miterlimit="10" stroke-linecap="round"></path><path d="M100.363 257.619C99.2109 253.965 100.797 250.364 103.385 253.103C105.972 255.842 107.414 261.168 111.008 262.03C114.603 262.892 127.559 265.065 127.559 265.065L138.204 266.921L134.175 270.806L114.32 269.594L102.944 263.189L100.363 257.613V257.619Z" fill="#FFB3AE"></path><path d="M97.0055 260.588C95.2806 257.79 93.694 254.11 95.5637 253.537C95.5637 253.537 98.7303 252.53 100.31 255.117C101.89 257.705 103.352 262.418 107.361 263.748C111.37 265.084 118.006 265.19 118.006 265.19C118.006 265.19 131.39 264.9 131.818 265.19C132.253 265.479 132.681 271.378 132.681 271.378L122.898 274.255C122.898 274.255 107.644 269.824 106.347 269.594C105.05 269.364 96.9923 260.588 96.9923 260.588H97.0055Z" fill="#FFB3AE"></path><path d="M143.043 261.451C131.726 249.153 117.065 254.67 111.91 256.224C106.749 257.777 105.208 264.907 105.208 264.907C105.208 264.907 113.51 272.524 115.821 272.214C118.131 271.905 131.97 271.596 131.97 271.596L140.916 268.607L143.049 261.451H143.043Z" fill="#84393B"></path><path d="M155.136 264.617C143.912 255.697 135.136 257.566 125.064 259.008C114.991 260.45 110.245 257.711 108.948 259.581C107.651 261.45 107.506 263.61 110.245 264.617C112.977 265.624 116.861 268.212 119.883 268.356C122.904 268.501 130.817 267.494 130.817 267.494C130.817 267.494 123.332 271.233 118.158 269.943C112.977 268.646 107.796 266.348 105.208 264.907C102.621 263.465 98.3024 256.434 95.2806 257.79C92.2589 259.146 93.8389 260.443 96.8606 265.335C99.8824 270.226 106.36 274.69 110.962 277.132C115.564 279.581 122.476 282.168 125.353 281.451C128.23 280.733 144.636 278.719 151.252 280.878C157.868 283.037 155.136 264.617 155.136 264.617Z" fill="#FFB3AE"></path><path d="M270.154 166.697C270.154 166.697 262.096 210.845 250.325 210.311C245.216 210.028 241.812 200.344 239.745 190.996C237.744 182.128 236.921 173.51 236.921 173.51C236.921 173.51 236.961 164.853 235.881 156.433C235.334 151.97 234.446 147.605 233.083 144.537C229.304 136.012 253.794 135.024 256.335 134.978L256.513 134.932L266.507 158.191L266.52 158.25L270.154 166.69V166.697Z" fill="#FFB3AE"></path><g opacity="0.46"><path d="M264.657 146.018L264.67 146.077C263.972 150.021 261.846 158.961 254.466 167.282C248.383 174.142 241.569 177.381 237.895 178.816C236.954 172.99 235.071 161.331 235.071 161.331C235.071 161.331 235.111 152.674 234.031 144.254L254.485 122.805L254.663 122.759L264.657 146.018Z" fill="#FF7A72"></path></g><path d="M249.693 106.749C261.99 118.092 262.3 135.669 256.921 147.941C251.641 159.982 238.751 171.759 227.184 169.968C206.249 166.743 190.515 119.25 207.006 103.602C216.236 94.8461 236.809 94.8658 249.686 106.742L249.693 106.749Z" fill="#FFB3AE"></path><path d="M266.678 143.201C266.204 144.3 265.236 149.093 264.189 149.679C262.076 150.87 260.595 144.603 260.127 142.891C258.33 136.255 258.521 129.244 258.732 122.437C257.316 123.787 255.835 125.176 253.985 125.827C252.135 126.473 249.805 126.176 248.639 124.596C248.06 123.819 247.843 122.839 247.672 121.884C247.125 118.796 246.974 115.564 245.631 112.727C243.998 109.264 240.72 106.762 237.119 105.452C233.517 104.142 229.607 103.925 225.782 104.116C220.068 104.399 214.228 105.636 209.521 108.888C203.116 113.312 199.482 121.43 200.443 129.152C200.581 130.238 200.765 131.456 200.107 132.332C199.712 132.858 199.087 133.148 198.481 133.405C194.775 134.972 190.548 136.064 186.776 134.675C181.246 132.635 178.817 126.13 178.231 120.258C177.401 111.956 179.027 103.214 183.873 96.4196C189.231 88.908 197.816 84.5103 206.072 80.3958C211.654 77.611 217.243 74.8197 222.826 72.0349C224.762 71.0738 226.816 70.0797 228.968 70.2574C231.121 70.4352 233.287 72.2851 232.971 74.4247C234.966 70.9421 239.317 69.3226 243.32 69.6386C247.316 69.9546 251.009 71.8835 254.341 74.1218C258.093 76.6433 261.609 79.6518 264.031 83.4702C266.454 87.2885 267.705 91.989 266.75 96.4064C266.816 96.1036 269.956 98.6711 270.187 98.9673C271.042 100.067 271.385 101.239 271.767 102.503C272.761 105.814 273.485 109.198 273.886 112.634C274.492 117.783 275.387 124.484 273.498 129.494" fill="#002D53"></path><path d="M265.486 122.819C265.223 128.783 261.938 133.484 258.139 133.312C254.347 133.148 251.483 128.177 251.74 122.213C252.003 116.248 255.289 111.548 259.087 111.719C262.879 111.884 265.743 116.854 265.486 122.819Z" fill="#FFB3AE"></path><path d="M317.336 354.473H228.718C228.382 348.561 229.265 321.747 230.456 291.029C232.372 242.089 235.117 183.241 235.117 183.241L231.937 176.117C231.937 176.117 260.259 160.778 270.812 158.777C275.269 161.009 293.873 186.624 293.873 186.624C307.073 199.738 304.137 260.068 310.648 300.746C315.598 331.728 317.33 354.473 317.33 354.473H317.336Z" fill="#367ACC"></path><path opacity="0.16" d="M230.101 300.338L228.718 354.48C228.382 348.568 229.265 321.754 230.456 291.036L249.047 287.52L277.402 213.247H279.245C288.376 268.883 284.426 299.792 273.044 307.975C265.684 313.268 230.101 300.345 230.101 300.345V300.338Z" fill="#082228"></path><path d="M277.409 272.221L232.214 261.45C232.214 261.45 230.134 200.337 248.784 188.639C261.154 180.877 275.46 190.614 278.771 220.627C280.542 236.677 279.502 256.25 277.409 272.221Z" fill="#7FAAF7"></path><path d="M277.409 272.221C275.592 286.132 272.971 297.31 270.713 301.069C267.573 306.296 223.122 297.29 189.139 289.641C170.601 285.473 155.176 281.708 151.259 280.878L151.272 261.905C151.272 261.905 226.473 267.224 232.214 261.451L244.103 264.282L277.409 272.214V272.221Z" fill="#FFB3AE"></path><path opacity="0.56" d="M124.135 228.297C124.135 228.297 115.419 235.822 106.966 230.081C102.549 227.066 101.304 222.609 101.127 219.027C104.622 228.132 111.673 229.357 115.814 228.297C120.363 227.132 114.201 222.661 117.532 221.687C119.448 221.128 119.955 219.706 119.422 218.172C122.272 220.114 123.635 223.228 124.142 228.29L124.135 228.297Z" fill="#478E19"></path><path opacity="0.56" d="M139.264 232.214C135.636 235.743 130.462 238.099 124.675 232.517C125.63 229.159 126.953 226.75 129.04 225.269C126.255 230.904 130.153 234.61 137.862 232.517C138.382 232.372 138.856 232.28 139.264 232.214Z" fill="#478E19"></path><path d="M228.725 354.473V397.759L324.637 395.797L317.336 354.473" fill="#082228"></path><path d="M275.75 164.01C275.75 164.01 270.397 156.663 268.942 157.289C267.487 157.914 258.778 159.916 250.707 164.853C242.635 169.791 232.523 175.261 232.523 175.261C232.523 175.261 227.507 185.821 224.485 188.007C225.723 187.77 232.721 187.335 235.578 183.135C237.237 180.692 239.304 179.178 239.778 178.678C240.746 177.671 275.75 164.01 275.75 164.01Z" fill="#7FAAF7"></path></g><path d="M161.95 217.744C161.95 218.172 161.601 218.521 161.173 218.521C160.745 218.521 160.396 218.172 160.396 217.744C160.396 217.316 160.745 216.967 161.173 216.967C161.601 216.967 161.95 217.316 161.95 217.744Z" fill="#F74D56"></path><path d="M195.545 338.509C195.545 339.944 194.38 341.109 192.944 341.109C191.509 341.109 190.344 339.944 190.344 338.509C190.344 337.073 191.509 335.908 192.944 335.908C194.38 335.908 195.545 337.073 195.545 338.509Z" fill="white"></path><path d="M82.5879 212.141C82.5879 213.576 81.4227 214.742 79.9875 214.742C78.5524 214.742 77.3871 213.576 77.3871 212.141C77.3871 210.706 78.5524 209.541 79.9875 209.541C81.4227 209.541 82.5879 210.706 82.5879 212.141Z" fill="white"></path><path d="M153.076 90.9227C153.076 92.3578 151.91 93.5231 150.475 93.5231C149.04 93.5231 147.875 92.3578 147.875 90.9227C147.875 89.4875 149.04 88.3223 150.475 88.3223C151.91 88.3223 153.076 89.4875 153.076 90.9227Z" fill="white"></path><path d="M327.857 259.015C327.857 260.45 326.691 261.615 325.256 261.615C323.821 261.615 322.656 260.45 322.656 259.015C322.656 257.58 323.821 256.414 325.256 256.414C326.691 256.414 327.857 257.58 327.857 259.015Z" fill="white"></path><path d="M295.493 162.095C295.493 163.53 294.328 164.695 292.893 164.695C291.457 164.695 290.292 163.53 290.292 162.095C290.292 160.66 291.457 159.495 292.893 159.495C294.328 159.495 295.493 160.66 295.493 162.095Z" fill="white"></path><path d="M172.009 302.603C172.438 302.603 172.786 302.255 172.786 301.826C172.786 301.397 172.438 301.049 172.009 301.049C171.58 301.049 171.233 301.397 171.233 301.826C171.233 302.255 171.58 302.603 172.009 302.603Z" fill="#BDD8F0"></path><path d="M302.221 177.302C302.65 177.302 302.998 176.955 302.998 176.526C302.998 176.097 302.65 175.749 302.221 175.749C301.792 175.749 301.444 176.097 301.444 176.526C301.444 176.955 301.792 177.302 302.221 177.302Z" fill="#BDD8F0"></path><path d="M64.1283 194.011C64.1283 194.439 63.7794 194.788 63.3514 194.788C62.9235 194.788 62.5746 194.439 62.5746 194.011C62.5746 193.583 62.9235 193.234 63.3514 193.234C63.7794 193.234 64.1283 193.583 64.1283 194.011Z" fill="#BDD8F0"></path><path d="M131.891 98.8555C131.891 99.2834 131.542 99.6323 131.114 99.6323C130.686 99.6323 130.337 99.2834 130.337 98.8555C130.337 98.4275 130.686 98.0786 131.114 98.0786C131.542 98.0786 131.891 98.4275 131.891 98.8555Z" fill="#BDD8F0"></path><path d="M132.977 220.555C132.99 220.094 132.727 219.831 132.259 219.686C131.937 219.587 131.667 219.613 131.436 219.85C131.166 220.127 130.962 219.989 130.738 219.784C130.515 219.58 130.429 219.396 130.627 219.113C131.048 218.514 130.692 217.717 129.962 217.651C129.586 217.619 129.527 217.414 129.514 217.098C129.507 216.802 129.553 216.605 129.902 216.545C130.646 216.42 130.943 215.597 130.455 215.018C130.218 214.735 130.35 214.557 130.541 214.347C130.738 214.129 130.916 214.011 131.206 214.215C131.825 214.65 132.608 214.287 132.687 213.537C132.72 213.175 132.931 213.122 133.22 213.116C133.51 213.102 133.721 213.135 133.78 213.497C133.912 214.254 134.695 214.544 135.301 214.064C135.597 213.833 135.788 213.958 136.005 214.162C136.236 214.373 136.288 214.557 136.084 214.834C135.669 215.4 136.045 216.223 136.742 216.282C137.078 216.308 137.19 216.46 137.21 216.776C137.223 217.098 137.177 217.329 136.795 217.395C136.078 217.526 135.794 218.323 136.255 218.902C136.492 219.199 136.367 219.383 136.163 219.607C135.952 219.831 135.775 219.896 135.492 219.692C134.899 219.264 134.116 219.64 134.037 220.37C134.01 220.581 133.971 220.785 133.708 220.785C133.451 220.785 133.148 220.93 132.964 220.548L132.977 220.555ZM134.201 218.764C135.195 218.31 135.636 217.145 135.189 216.15C134.735 215.15 133.53 214.696 132.542 215.156C131.555 215.617 131.114 216.782 131.561 217.777C132.022 218.797 133.187 219.231 134.201 218.771V218.764Z" fill="#4370B6"></path><path d="M113.352 249.324C113.372 248.587 112.957 248.159 112.206 247.928C111.686 247.77 111.258 247.81 110.89 248.192C110.455 248.639 110.133 248.416 109.771 248.08C109.415 247.751 109.27 247.461 109.593 247C110.271 246.039 109.698 244.762 108.526 244.657C107.927 244.604 107.828 244.275 107.809 243.774C107.796 243.294 107.868 242.991 108.434 242.892C109.626 242.688 110.1 241.378 109.316 240.443C108.934 239.989 109.145 239.699 109.448 239.364C109.764 239.015 110.047 238.824 110.514 239.159C111.509 239.857 112.766 239.278 112.884 238.073C112.944 237.494 113.273 237.415 113.74 237.395C114.201 237.382 114.543 237.428 114.642 238.007C114.846 239.219 116.104 239.68 117.078 238.916C117.545 238.547 117.855 238.745 118.21 239.08C118.579 239.423 118.665 239.712 118.342 240.16C117.677 241.062 118.276 242.379 119.395 242.477C119.929 242.524 120.12 242.76 120.139 243.267C120.166 243.787 120.08 244.15 119.474 244.262C118.329 244.472 117.868 245.749 118.612 246.678C118.987 247.145 118.796 247.454 118.461 247.81C118.125 248.172 117.835 248.277 117.387 247.955C116.439 247.264 115.182 247.863 115.057 249.041C115.017 249.383 114.952 249.706 114.53 249.706C114.122 249.706 113.635 249.943 113.339 249.324H113.352ZM115.314 246.46C116.907 245.73 117.611 243.86 116.894 242.267C116.17 240.66 114.241 239.93 112.647 240.667C111.061 241.404 110.363 243.281 111.074 244.867C111.805 246.5 113.681 247.198 115.307 246.454L115.314 246.46Z" fill="#4370B6"></path><path d="M117.552 206.717C117.572 205.979 117.157 205.551 116.406 205.321C115.886 205.163 115.458 205.203 115.09 205.584C114.655 206.032 114.333 205.808 113.971 205.472C113.615 205.143 113.47 204.854 113.793 204.393C114.471 203.432 113.898 202.154 112.726 202.049C112.127 201.996 112.029 201.667 112.009 201.167C111.996 200.686 112.068 200.384 112.634 200.285C113.826 200.081 114.3 198.771 113.516 197.836C113.135 197.382 113.345 197.092 113.648 196.756C113.964 196.407 114.247 196.216 114.715 196.552C115.709 197.25 116.966 196.671 117.085 195.466C117.144 194.886 117.473 194.807 117.94 194.788C118.401 194.775 118.744 194.821 118.842 195.4C119.046 196.611 120.304 197.072 121.278 196.308C121.746 195.94 122.055 196.137 122.41 196.473C122.779 196.815 122.865 197.105 122.542 197.553C121.877 198.455 122.476 199.771 123.595 199.87C124.129 199.916 124.32 200.153 124.339 200.66C124.366 201.18 124.28 201.542 123.674 201.654C122.529 201.865 122.068 203.142 122.812 204.07C123.187 204.538 122.996 204.847 122.661 205.203C122.325 205.565 122.035 205.67 121.588 205.347C120.64 204.656 119.382 205.255 119.257 206.434C119.218 206.776 119.152 207.098 118.73 207.098C118.322 207.098 117.835 207.336 117.539 206.717H117.552ZM119.514 203.846C121.107 203.116 121.811 201.246 121.094 199.653C120.37 198.046 118.441 197.316 116.848 198.053C115.261 198.79 114.563 200.667 115.274 202.253C116.005 203.886 117.881 204.584 119.507 203.84L119.514 203.846Z" fill="#4370B6"></path><path d="M127.052 211.805C127.058 211.549 126.914 211.404 126.657 211.325C126.479 211.272 126.328 211.285 126.203 211.417C126.051 211.575 125.939 211.496 125.814 211.378C125.689 211.266 125.643 211.16 125.755 211.002C125.992 210.667 125.788 210.225 125.386 210.193C125.176 210.173 125.143 210.061 125.136 209.89C125.136 209.725 125.156 209.62 125.353 209.587C125.768 209.514 125.933 209.06 125.663 208.738C125.531 208.58 125.603 208.481 125.709 208.362C125.821 208.244 125.913 208.178 126.077 208.29C126.42 208.534 126.854 208.329 126.9 207.915C126.92 207.717 127.039 207.684 127.197 207.678C127.355 207.678 127.473 207.691 127.506 207.888C127.578 208.31 128.013 208.468 128.349 208.204C128.513 208.079 128.619 208.145 128.744 208.264C128.869 208.382 128.902 208.481 128.79 208.639C128.559 208.955 128.763 209.409 129.152 209.442C129.336 209.455 129.402 209.541 129.409 209.719C129.415 209.896 129.389 210.021 129.178 210.061C128.783 210.133 128.625 210.574 128.882 210.897C129.014 211.062 128.948 211.167 128.829 211.292C128.711 211.417 128.612 211.457 128.454 211.338C128.125 211.101 127.69 211.305 127.644 211.713C127.631 211.832 127.605 211.944 127.46 211.944C127.322 211.944 127.151 212.023 127.045 211.812L127.052 211.805ZM127.73 210.811C128.283 210.561 128.526 209.909 128.276 209.356C128.026 208.797 127.355 208.547 126.808 208.803C126.255 209.06 126.018 209.705 126.262 210.258C126.519 210.825 127.164 211.068 127.73 210.811Z" fill="#4370B6"></path><path d="M79.6057 79.8293C80.4944 86.044 81.3437 92.0348 82.1995 98.0191C82.2917 98.0323 82.3773 98.052 82.4694 98.0652C83.4503 96.7551 84.4247 95.4516 85.4517 94.0823C86.6235 95.4977 87.7493 96.8736 88.9013 98.2298C94.3787 104.714 100.653 110.317 107.585 115.202C115.9 121.061 124.886 125.636 134.471 128.974C139.093 130.587 143.846 131.864 148.573 133.148C154.432 134.741 160.442 135.603 166.466 136.281C170.285 136.709 174.136 136.907 177.98 137.025C175.815 136.815 173.635 136.709 171.496 136.374C166.703 135.617 161.891 134.919 157.151 133.885C147.388 131.752 137.974 128.539 128.954 124.208C119.869 119.843 111.482 114.412 103.964 107.677C98.7961 103.049 94.2141 97.8874 90.2246 92.206C90.1061 92.0414 90.0139 91.8637 89.8164 91.5345C91.4228 91.2975 92.9304 91.0737 94.6684 90.8169C89.5992 87.1171 84.688 83.5358 79.6123 79.8293H79.6057Z" fill="#36CE52"></path><path d="M150.324 182.53H159.297V157.401H150.324V182.53Z" fill="#5E8CEA"></path><path d="M88.6512 182.629H99.2964L99.2964 111.957H88.6512L88.6512 182.629Z" fill="#5E8CEA"></path><path d="M72.9829 182.819H83.6281L83.6281 104.714H72.9829L72.9829 182.819Z" fill="#5E8CEA"></path><path d="M105.215 182.734H115.083V126.295H105.215V182.734Z" fill="#5E8CEA"></path><path d="M120.903 183.682H130.771V137.032H120.903V183.682Z" fill="#5E8CEA"></path><path d="M136.361 183.675H145.334V148.441H136.361V183.675Z" fill="#5E8CEA"></path><path d="M68.6773 69.7108C68.9473 68.9932 69.125 68.2559 69.046 67.4791C69.0197 67.2552 68.967 67.0314 68.7037 67.0182C68.3613 66.9985 68.2889 67.2157 68.3087 67.5186C68.4008 68.8023 67.94 69.8556 66.9788 70.7049C65.8202 71.7253 64.0098 71.8899 62.6799 71.0801C61.3698 70.2836 60.7839 68.7431 61.1921 67.1762C61.225 67.0577 61.2711 66.9261 61.2579 66.8076C61.2448 66.6364 61.1197 66.5376 60.9485 66.5113C60.7181 66.4784 60.6062 66.6166 60.5469 66.801C60.3165 67.4856 60.2441 68.1835 60.3955 68.8879C60.4679 69.2171 60.3889 69.3553 60.0795 69.4738C58.2098 70.2243 56.2348 69.7174 54.9906 68.1374C53.9043 66.7615 53.9307 64.7075 55.0696 63.1275C55.2276 62.9036 55.379 62.6798 55.0959 62.4757C54.8194 62.2716 54.6351 62.4757 54.4705 62.693C54.0031 63.3316 53.6805 64.0294 53.5554 64.8062C53.5159 65.0432 53.4369 65.1222 53.1933 65.1486C51.8503 65.2802 50.5534 64.5692 49.9543 63.3579C49.3684 62.1663 49.6252 60.6192 50.5732 59.6251C51.0011 59.1775 51.5014 58.8483 52.0939 58.664C52.3573 58.5784 52.5943 58.4467 52.4823 58.1307C52.3638 57.8081 52.0873 57.8806 51.8372 57.9661C51.1459 58.2031 50.5337 58.5718 50.0465 59.1248C49.8622 59.3355 49.6976 59.3421 49.4606 59.2433C46.6363 58.0715 46.057 54.3848 48.4402 52.2584C48.6311 52.0872 48.7957 52.0477 49.0393 52.1728C49.5462 52.4361 50.0992 52.5546 50.6653 52.6073C50.9221 52.6336 51.1723 52.6073 51.1986 52.2781C51.2249 51.9556 50.9813 51.8963 50.7246 51.87C48.8286 51.6396 47.4329 50.3887 47.1235 48.6376C46.8009 46.8206 47.7621 44.9377 49.4343 44.0885C49.6186 43.9963 49.7239 44.0095 49.8622 44.1675C50.2243 44.5954 50.6983 44.8785 51.2381 45.0299C51.4751 45.0957 51.7055 45.1023 51.7911 44.8061C51.8635 44.5296 51.6989 44.3979 51.4488 44.3189C50.5337 44.0358 49.9873 43.417 49.9017 42.4624C49.8161 41.5012 50.2506 40.7705 51.0735 40.2767C51.5146 40.0068 51.8767 40.0397 52.2783 40.3689C52.6535 40.6783 52.9366 41.0667 53.2065 41.4617C58.2164 48.789 63.2198 56.1162 68.2231 63.4435C69.2435 64.9379 70.2508 66.4323 71.2646 67.9267C70.4088 68.5126 69.5463 69.0986 68.6905 69.6845L68.6773 69.7108ZM61.9821 63.0814C61.9689 62.3572 61.8833 61.666 61.5871 61.0142C61.2316 60.2374 60.7247 59.6186 59.8491 59.4145C59.5923 59.3552 59.6516 59.2565 59.7306 59.0985C59.9676 58.6047 60.0663 58.0846 59.9478 57.5382C59.9215 57.4197 59.9281 57.3276 60.0005 57.2222C61.1197 55.7541 60.5074 53.9635 59.5331 52.9891C58.697 52.1531 57.7358 51.6001 56.4982 51.9358C56.1558 52.028 56.09 51.9819 56.0505 51.6461C55.9057 50.3624 55.3461 49.3025 54.2467 48.5849C53.9373 48.3874 53.9241 48.2952 54.1743 48.0319C55.0696 47.0641 55.0762 45.708 54.2335 44.7666C54.0755 44.5888 53.8912 44.4901 53.6805 44.6546C53.483 44.8061 53.483 45.0167 53.6344 45.2142C53.6739 45.2735 53.72 45.3261 53.7661 45.3788C54.1282 45.8396 54.194 46.34 54.0163 46.893C53.7463 47.7356 52.5877 48.5651 51.6133 48.1438C51.3829 48.0451 51.1525 48.0385 51.0538 48.3216C50.9418 48.6244 51.1328 48.7561 51.3895 48.8482C51.8108 48.9931 52.2453 49.0589 52.6798 48.9338C53.0222 48.8285 53.3118 48.9075 53.6081 49.0589C54.9248 49.7304 55.6753 51.5474 55.2342 53.0155C54.9248 54.0425 54.2269 54.6481 53.2131 54.9246C52.9498 54.9971 52.7523 55.1287 52.8313 55.425C52.9168 55.7278 53.1736 55.7081 53.4238 55.6422C54.5429 55.3196 55.3922 54.6811 55.8333 53.5751C56.169 52.7324 56.8273 52.3901 57.6832 52.6797C58.8221 53.0681 59.5397 53.8779 59.8162 55.0497C59.9413 55.6027 59.8557 56.136 59.5133 56.6166C59.3158 56.4454 59.1447 56.2808 58.9538 56.1426C58.7497 55.9977 58.5324 55.8595 58.302 55.7541C58.1045 55.662 57.907 55.6817 57.8017 55.9121C57.7095 56.1228 57.7622 56.294 57.9728 56.4125C58.1901 56.5376 58.4139 56.6626 58.618 56.8206C59.171 57.2486 59.3817 57.8608 59.2105 58.4599C58.9274 59.4342 57.7556 60.3822 56.7418 60.4546C56.1361 60.5007 55.6818 60.2176 55.4383 59.6515C55.3856 59.5198 55.3461 59.3816 55.3 59.2565C55.2144 59.0392 55.0433 58.9536 54.826 59.0261C54.6219 59.0919 54.5495 59.2696 54.6022 59.4671C54.7733 60.1321 55.0828 60.7114 55.7477 61.0011C56.8471 61.4751 57.7885 61.0603 58.6641 60.4217C59.1842 60.0399 59.7438 60.0136 60.2441 60.4151C60.7115 60.7904 60.9683 61.3039 61.1197 61.8766C61.541 63.4896 60.9353 65.4514 59.0262 65.7608C58.7628 65.8069 58.6707 65.9846 58.7233 66.2216C58.776 66.4652 58.9735 66.5047 59.1908 66.4718C60.3033 66.2611 61.1526 65.6686 61.6003 64.6219C61.7912 64.1742 62.1006 63.9175 62.4956 63.7266C63.2329 63.3776 63.9834 63.3513 64.6681 63.8319C65.3725 64.3256 65.6622 65.0301 65.5634 65.8925C65.5042 66.4126 65.2738 66.8602 64.9841 67.2881C64.8458 67.4856 64.8063 67.6897 65.017 67.8477C65.2474 68.0189 65.4515 67.907 65.5963 67.7029C66.0901 66.9985 66.3732 66.2282 66.3008 65.3592C66.1625 63.641 64.6352 62.4757 62.9433 62.7983C62.6273 62.8576 62.331 62.9892 61.9821 63.1011V63.0814Z" fill="#F0C411"></path><path d="M71.8834 67.5188C70.5931 65.636 69.2962 63.7465 68.0058 61.8637C63.2988 54.9775 58.5917 48.098 53.8846 41.2118C53.5818 40.7707 53.2789 40.323 53.1143 39.8095C52.9563 39.3158 53.0617 38.9669 53.4764 38.6509C54.2401 38.0715 55.0696 37.9267 55.9386 38.3612C56.7747 38.7891 57.1565 39.5067 57.0973 40.4415C57.0841 40.7115 57.1236 40.9419 57.4396 40.9682C57.7753 40.9945 57.8148 40.7312 57.8412 40.481C57.8873 39.9346 57.7753 39.4145 57.5318 38.9274C57.4462 38.7628 57.4396 38.6575 57.591 38.5324C59.8425 36.564 63.2329 37.2684 64.2928 39.9346C64.622 40.7641 64.6418 41.6068 64.4179 42.4692C64.385 42.5877 64.3389 42.7194 64.3521 42.8379C64.3653 43.0025 64.4772 43.1275 64.6483 43.1473C64.8656 43.1802 64.9973 43.0551 65.0631 42.8642C65.254 42.298 65.3527 41.7121 65.2869 41.113C65.254 40.8036 65.3659 40.6456 65.6227 40.5271C68.5259 39.1183 71.6398 41.0406 71.7188 44.0031C71.7254 44.2994 71.6464 44.4442 71.3502 44.5561C70.6655 44.8129 70.0993 45.254 69.6385 45.8267C69.4739 46.0308 69.3488 46.2546 69.5924 46.4521C69.8492 46.6628 70.0467 46.5048 70.2244 46.281C71.7057 44.464 74.4838 44.5364 75.7017 46.4324C76.3732 47.4791 76.3798 48.5785 75.8466 49.6977C75.7544 49.8886 75.6557 49.9281 75.4582 49.882C74.6748 49.7175 73.8913 49.757 73.1145 49.961C72.8512 50.0335 72.601 50.1322 72.68 50.4614C72.7656 50.8037 73.0355 50.7379 73.2988 50.6786C74.8327 50.3034 76.2218 50.5667 77.3805 51.6793C79.1975 53.4239 78.9342 56.1428 77.2752 57.7755C77.1237 57.9269 77.0053 57.9071 76.8407 57.7952C76.2416 57.387 75.5767 57.1895 74.8591 57.1171C74.5826 57.0908 74.3193 57.1171 74.3061 57.4726C74.2995 57.7886 74.5431 57.8281 74.7998 57.861C76.3074 58.0256 77.3673 58.8156 77.8216 60.2574C78.2824 61.7123 77.8677 63.0026 76.7353 64.0099C75.5108 65.0961 74.1086 65.287 72.6076 64.6221C72.364 64.5102 72.127 64.4444 71.9888 64.7209C71.8307 65.0303 72.0743 65.1817 72.3113 65.3002C72.996 65.6425 73.7333 65.7347 74.4838 65.7479C73.6214 66.3338 72.759 66.9263 71.9032 67.5122L71.8834 67.5188ZM70.7445 57.1171C70.6128 57.2554 70.5207 57.3607 70.4219 57.4595C69.204 58.7761 69.4344 60.784 70.9223 61.765C71.7913 62.3377 72.7458 62.3838 73.7333 62.1336C73.9638 62.0744 74.1152 61.9164 74.0428 61.6662C73.9703 61.416 73.7728 61.3765 73.5358 61.4226C73.3186 61.4687 73.0948 61.5082 72.8709 61.5214C71.8637 61.5806 71.0803 61.2185 70.5931 60.31C69.9413 59.1053 70.8893 57.387 72.2455 57.3146C73.3647 57.2488 74.2271 56.7353 74.8459 55.8005C74.9908 55.5766 75.0697 55.3528 74.7933 55.1816C74.5431 55.0302 74.3785 55.1553 74.2402 55.3791C73.9835 55.7741 73.6675 56.1099 73.2264 56.314C71.7583 57.0052 69.599 56.1955 68.9341 54.7076C68.6313 54.0295 68.8419 53.4107 69.4871 53.0157C70.0269 52.6865 70.4812 52.2718 70.7774 51.7056C71.3765 50.593 70.9749 49.599 70.0664 48.9275C69.8887 48.7958 69.6912 48.7695 69.5397 48.9538C69.3752 49.1513 69.4278 49.3488 69.6188 49.5134C69.6714 49.5595 69.7307 49.599 69.7833 49.645C70.4153 50.2046 70.5009 50.8695 70.0006 51.5542C69.4278 52.3376 68.6378 52.7655 67.6701 52.838C67.0052 52.884 66.5048 52.5746 66.2086 51.969C66.0572 51.6595 65.9913 51.3304 65.9584 50.988C65.9321 50.7445 65.8136 50.5865 65.5503 50.6062C65.2672 50.626 65.2079 50.8235 65.2211 51.0539C65.2474 51.4225 65.3001 51.7912 65.4647 52.1204C65.6293 52.4495 65.5437 52.5154 65.2145 52.5154C63.3514 52.5417 62.1006 50.119 62.726 48.7036C62.9498 48.1967 63.3514 47.8873 63.9571 47.9136C65.2211 47.9597 66.1757 47.3738 66.913 46.3929C67.0578 46.1954 67.1434 45.9781 66.8998 45.8004C66.6694 45.6292 66.4785 45.7214 66.3205 45.9386C66.1164 46.2085 65.8992 46.4719 65.6161 46.6628C64.5496 47.4001 63.4568 47.3277 62.3968 46.6891C61.3106 46.044 60.6523 45.1091 60.6786 43.7859C60.6786 43.595 60.7971 43.4765 60.8893 43.3382C61.1855 42.9037 61.3238 42.4231 61.2908 41.8965C61.2777 41.6726 61.1394 41.5673 60.9353 41.5607C60.7378 41.5541 60.6193 41.666 60.5798 41.8504C60.5601 41.9294 60.5667 42.0215 60.5601 42.1005C60.4745 42.9432 59.9018 43.5489 58.9867 43.753C58.1967 43.9307 57.6108 43.6608 57.1499 42.9037C57.0051 42.6667 56.8273 42.5219 56.564 42.6799C56.2941 42.8445 56.3797 43.0815 56.5113 43.3053C57.1828 44.431 58.3086 44.8195 59.6121 44.3323C59.882 44.2335 59.961 44.273 60.0005 44.5561C60.0729 45.063 60.2836 45.5239 60.5733 45.9518C61.0209 46.6299 61.6068 47.1368 62.331 47.4923C62.4824 47.5647 62.6075 47.6174 62.4298 47.8149C61.7122 48.6378 61.7056 49.5858 61.9821 50.5667C62.4627 52.2718 64.1085 53.674 65.9782 53.1342C66.0769 53.1079 66.1625 53.0947 66.2547 53.1671C66.7353 53.516 67.2817 53.6082 67.861 53.5555C68.0585 53.5358 68.1046 53.595 68.0717 53.786C67.9598 54.4904 68.2099 55.0895 68.6247 55.6359C69.1579 56.3337 69.8755 56.755 70.7379 57.1105L70.7445 57.1171Z" fill="#F0C411"></path><path d="M71.8834 67.5184C72.7458 66.9325 73.6083 66.34 74.4641 65.7541C75.4121 65.1155 76.3601 64.4704 77.3015 63.8318C77.8018 63.496 78.1047 63.5487 78.4404 64.0227C78.5853 64.2268 78.7301 64.4374 78.8683 64.6481C79.1646 65.1024 79.1053 65.4184 78.6577 65.7278C77.5188 66.5112 76.3733 67.288 75.2343 68.0714C72.5681 69.895 69.8953 71.7186 67.229 73.5422C66.6497 73.9372 66.3666 73.8845 65.965 73.3052C65.1552 72.1399 65.1618 72.1202 66.3402 71.3104C67.1171 70.7772 67.8939 70.2374 68.6707 69.6975C69.5266 69.1116 70.389 68.5257 71.2448 67.9398C71.4555 67.7949 71.6596 67.6567 71.8702 67.5119L71.8834 67.5184Z" fill="#2B80B9"></path><path d="M73.3252 70.3757C75.0697 69.1842 76.8209 67.986 78.5655 66.7944C79.1251 66.4126 79.3884 66.4652 79.79 67.0314C80.659 68.2362 80.5142 68.302 79.4411 69.0262C76.1033 71.2908 72.7787 73.5752 69.4476 75.8531C68.9143 76.2152 68.6312 76.1625 68.256 75.6227C68.1375 75.4515 68.0124 75.2737 67.9005 75.096C67.5516 74.5759 67.6042 74.2862 68.1177 73.9307C69.8557 72.7457 71.5872 71.5607 73.3252 70.3757Z" fill="#2B80B9"></path><path d="M76.4588 74.8723C74.8854 75.9454 73.3186 77.0184 71.7452 78.0915C71.2843 78.4075 71.0407 78.3614 70.7247 77.9138C70.5404 77.6504 70.3495 77.3871 70.1783 77.1106C69.9545 76.7485 70.0072 76.4852 70.3561 76.2482C73.5556 74.0559 76.7551 71.8703 79.9546 69.6846C80.2771 69.4674 80.5471 69.52 80.7709 69.7965C81.0145 70.1059 81.2383 70.4351 81.4424 70.7709C81.6531 71.1198 81.5741 71.3765 81.212 71.6267C79.632 72.7129 78.0454 73.7926 76.4654 74.8723H76.4588Z" fill="#2B80B9"></path><path d="M76.8407 75.4583C77.6768 74.8856 78.5129 74.3128 79.3555 73.7401C79.5135 73.6347 79.6781 73.457 79.8822 73.615C80.0863 73.773 79.9546 73.9771 79.9019 74.1614C79.1844 76.4392 76.8473 78.0126 74.4707 77.8217C74.2864 77.8086 74.0823 77.8217 74.0296 77.5847C73.9835 77.3741 74.1613 77.2885 74.2929 77.1963C75.1422 76.617 75.9914 76.0376 76.8407 75.4517V75.4583Z" fill="#2B80B9"></path><path d="M78.6116 39.8621C78.2759 40.0925 77.8874 40.0596 77.6373 39.7831C77.3871 39.5066 77.4003 39.0984 77.6965 38.789C78.2627 38.2162 78.842 37.6632 79.4148 37.0971C80.0731 36.4585 80.7249 35.8133 81.3832 35.1813C81.7716 34.8127 82.2061 34.7929 82.5024 35.1089C82.7854 35.4117 82.7525 35.8331 82.3839 36.1952C81.1923 37.3736 79.9875 38.5454 78.7894 39.7172C78.7301 39.7765 78.6577 39.8292 78.6116 39.8687V39.8621Z" fill="#F0C411"></path><path d="M37.5909 65.096C38.5191 64.6747 39.5329 64.2204 40.5468 63.7596C41.1656 63.4831 41.7779 63.2 42.3967 62.9235C42.739 62.7721 43.0484 62.8577 43.2657 63.1408C43.4632 63.3975 43.4566 63.6872 43.2789 63.9703C43.1999 64.0953 43.0814 64.1678 42.9497 64.227C41.3631 64.9512 39.7699 65.6753 38.1768 66.3863C37.7818 66.5641 37.4065 66.4258 37.2288 66.0967C37.0444 65.7543 37.1564 65.3791 37.5843 65.096H37.5909Z" fill="#F0C411"></path><path d="M36.1359 46.6166C36.2544 46.531 36.4519 46.5179 36.6692 46.5771C38.3545 47.0511 40.0332 47.512 41.7186 47.9925C42.1597 48.1176 42.3572 48.4665 42.2584 48.8615C42.1531 49.2763 41.791 49.4804 41.3367 49.3553C39.6646 48.8945 37.999 48.427 36.3268 47.9596C36.0108 47.874 35.8002 47.6831 35.7541 47.354C35.708 47.0643 35.8265 46.8339 36.1359 46.6166Z" fill="#F0C411"></path><path d="M56.4718 27.9197C56.4982 27.9987 56.5574 28.1436 56.5969 28.2884C57.0117 29.8947 57.4198 31.5077 57.8346 33.114C57.9268 33.4761 57.8807 33.7921 57.5581 34.0159C57.1631 34.2924 56.6167 34.0949 56.4784 33.5946C56.0242 31.8829 55.5963 30.1581 55.1683 28.4398C55.0828 28.0843 55.221 27.7815 55.5568 27.6367C55.8793 27.4984 56.1953 27.5511 56.4653 27.9197H56.4718Z" fill="#F0C411"></path><path d="M46.5507 69.25C46.8799 69.0261 47.3012 69.0788 47.5382 69.3751C47.7621 69.6581 47.7226 70.0861 47.4263 70.3757C46.7219 71.067 46.0175 71.7516 45.3065 72.4429C44.7732 72.963 44.24 73.4896 43.7002 74.0097C43.3776 74.3191 42.9299 74.3191 42.6468 74.0229C42.3703 73.7332 42.3835 73.3185 42.6995 73.0025C43.9437 71.7714 45.1946 70.5535 46.4388 69.329C46.4717 69.3026 46.5047 69.2763 46.5376 69.25H46.5507Z" fill="#F0C411"></path><path d="M82.1534 44.9184C83.2331 44.4312 84.3457 43.9243 85.4648 43.4174C85.9652 43.1935 86.4655 42.9631 86.9724 42.7459C87.3872 42.5681 87.7756 42.7064 87.9402 43.0685C88.1113 43.4503 87.9533 43.8519 87.5386 44.0428C85.9652 44.7604 84.3852 45.478 82.8052 46.189C82.4167 46.3667 81.9822 46.2219 81.8242 45.8861C81.6597 45.5306 81.7782 45.1488 82.16 44.9184H82.1534Z" fill="#F0C411"></path><path d="M45.425 41.4487C45.6291 41.7779 45.6093 42.0939 45.346 42.3506C45.0761 42.6205 44.7403 42.6469 44.4243 42.423C43.6212 41.8569 42.818 41.2775 42.0214 40.7048C41.4026 40.2637 40.7837 39.816 40.1715 39.3749C39.895 39.1774 39.7502 38.9141 39.8489 38.5718C39.9872 38.1044 40.4941 37.8805 40.8957 38.1636C42.3703 39.1972 43.8318 40.2571 45.2933 41.3104C45.346 41.3499 45.3921 41.4158 45.425 41.4553V41.4487Z" fill="#F0C411"></path><path d="M65.1223 33.4501C64.8919 33.5884 64.6418 33.6147 64.3982 33.483C64.1085 33.3316 63.9834 33.0749 64.0163 32.7457C64.1019 31.8372 64.1941 30.9221 64.2863 30.0136C64.3653 29.2039 64.4443 28.3875 64.5364 27.5778C64.5957 27.0972 64.8919 26.8339 65.3067 26.8602C65.7214 26.8931 65.9913 27.242 65.9453 27.7358C65.7873 29.4343 65.6095 31.1262 65.4449 32.8247C65.4186 33.0749 65.3264 33.2855 65.1223 33.4501Z" fill="#F0C411"></path><path d="M53.7134 73.8518C53.8648 74.0691 53.8912 74.2995 53.7793 74.5365C53.0156 76.1362 52.2519 77.7426 51.4751 79.3357C51.2908 79.711 50.8892 79.8361 50.5468 79.6781C50.1716 79.5069 50.0136 79.1251 50.2045 78.7235C50.9616 77.1172 51.7253 75.5174 52.5087 73.9242C52.7588 73.4173 53.4238 73.4042 53.7266 73.8584L53.7134 73.8518Z" fill="#F0C411"></path><path d="M74.9117 29.7104C75.05 29.9474 75.0697 30.191 74.9512 30.4346C74.1942 32.0212 73.4371 33.6143 72.6668 35.1943C72.4759 35.5827 72.0546 35.7078 71.6991 35.5235C71.3567 35.3457 71.2119 34.9639 71.3897 34.5821C72.1467 32.9757 72.9104 31.376 73.6938 29.7894C73.944 29.2891 74.6155 29.2627 74.9117 29.7104Z" fill="#F0C411"></path><path d="M83.9375 52.3175C84.0955 52.2122 84.2601 52.199 84.4312 52.1859C86.0902 52.0608 87.7427 51.9357 89.4017 51.8106C89.9547 51.7711 90.2838 51.995 90.3365 52.4295C90.3826 52.8771 90.0797 53.1865 89.5136 53.2326C87.8282 53.3643 86.1429 53.4828 84.4576 53.6145C84.0626 53.6474 83.7927 53.4828 83.6676 53.1273C83.5557 52.7981 83.6676 52.5216 83.9375 52.3175Z" fill="#F0C411"></path><path d="M35.1287 56.0372C35.2735 55.9253 35.4381 55.9187 35.6093 55.9056C37.2683 55.7805 38.9207 55.6488 40.5797 55.5237C41.1524 55.4776 41.5013 55.7278 41.5277 56.1821C41.554 56.6297 41.238 56.9062 40.6653 56.9523C39.0194 57.0774 37.3802 57.2091 35.7343 57.3276C35.2077 57.3671 34.918 57.1827 34.8324 56.7746C34.7732 56.4783 34.8785 56.2084 35.1287 56.0372Z" fill="#F0C411"></path><path d="M49.3487 33.9767C49.8293 34.6745 50.3098 35.3724 50.7838 36.0768C51.0735 36.5113 51.0208 36.8931 50.6522 37.1433C50.2901 37.3803 49.9214 37.2947 49.6383 36.8799C48.6706 35.4711 47.7094 34.0623 46.7483 32.6534C46.4586 32.2255 46.5178 31.8239 46.8799 31.5869C47.2288 31.3565 47.6107 31.4487 47.8938 31.8503C48.3809 32.5547 48.8681 33.2723 49.3553 33.9833L49.3487 33.9767Z" fill="#F0C411"></path><path d="M61.9821 63.0818C62.331 62.9698 62.6272 62.8448 62.9432 62.7789C64.6286 62.4498 66.1625 63.6216 66.3007 65.3398C66.3732 66.2088 66.0901 66.9791 65.5963 67.6835C65.4515 67.8942 65.2474 67.9995 65.017 67.8283C64.8063 67.6703 64.8458 67.4663 64.9841 67.2688C65.2737 66.8474 65.4976 66.3932 65.5634 65.8731C65.6622 65.0107 65.3659 64.3063 64.6681 63.8125C63.9834 63.3319 63.2329 63.3583 62.4956 63.7072C62.1006 63.8981 61.7912 64.1548 61.6002 64.6025C61.146 65.6493 60.3033 66.2418 59.1907 66.4524C58.9801 66.4919 58.7826 66.4524 58.7233 66.2023C58.6707 65.9587 58.7628 65.7809 59.0262 65.7414C60.9287 65.432 61.541 63.4702 61.1197 61.8573C60.9682 61.2845 60.7115 60.771 60.2441 60.3958C59.7437 59.9942 59.1842 60.0205 58.6641 60.4023C57.7885 61.0475 56.8471 61.4623 55.7477 60.9817C55.0827 60.692 54.7733 60.1127 54.6022 59.4478C54.5495 59.2437 54.6219 59.0725 54.826 59.0067C55.0432 58.9408 55.2144 59.0198 55.3 59.2371C55.3527 59.3688 55.3856 59.507 55.4382 59.6321C55.6818 60.1983 56.1361 60.4813 56.7417 60.4353C57.7556 60.3628 58.9274 59.4148 59.2105 58.4405C59.3882 57.8348 59.171 57.2292 58.618 56.8013C58.4205 56.6498 58.1967 56.5248 57.9728 56.3931C57.7622 56.2746 57.7095 56.1034 57.8017 55.8928C57.907 55.6623 58.1045 55.6426 58.302 55.7348C58.5324 55.8467 58.7497 55.9783 58.9537 56.1232C59.1447 56.2614 59.3158 56.426 59.5133 56.5972C59.8557 56.1166 59.9412 55.5833 59.8162 55.0303C59.5462 53.8585 58.8287 53.0488 57.6832 52.6603C56.8273 52.3707 56.1624 52.713 55.8332 53.5557C55.3922 54.6617 54.5495 55.3068 53.4237 55.6228C53.1736 55.6953 52.9168 55.715 52.8312 55.4056C52.7457 55.1093 52.9432 54.9777 53.2131 54.9053C54.2269 54.6353 54.9313 54.0297 55.2342 52.9961C55.6752 51.528 54.9247 49.7044 53.6081 49.0395C53.3118 48.8881 53.0222 48.8157 52.6798 48.9144C52.2519 49.0461 51.8174 48.9803 51.3895 48.8288C51.1327 48.7433 50.9484 48.605 51.0537 48.3022C51.1591 48.0191 51.3895 48.0257 51.6133 48.1244C52.5877 48.5458 53.7463 47.7163 54.0162 46.8736C54.194 46.3206 54.1282 45.8203 53.7661 45.3594C53.72 45.3068 53.6739 45.2475 53.6344 45.1948C53.4896 44.9973 53.483 44.7867 53.6805 44.6353C53.8912 44.4773 54.0689 44.5694 54.2335 44.7472C55.0762 45.6886 55.0696 47.0448 54.1742 48.0125C53.9241 48.2824 53.9438 48.368 54.2467 48.5655C55.3461 49.2831 55.9057 50.343 56.0505 51.6268C56.09 51.9691 56.1558 52.0086 56.4982 51.9164C57.7358 51.5807 58.697 52.1337 59.5331 52.9698C60.5074 53.9441 61.1197 55.7348 60.0005 57.2028C59.9215 57.3016 59.9215 57.4003 59.9478 57.5188C60.0663 58.0653 59.9676 58.5853 59.7306 59.0791C59.6516 59.2371 59.5989 59.3358 59.8491 59.3951C60.7247 59.5926 61.2316 60.218 61.5871 60.9948C61.8833 61.6466 61.9689 62.3378 61.9821 63.062V63.0818Z" fill="#FEFEFE"></path><path d="M70.7445 57.1168C69.8821 56.7613 69.1645 56.34 68.6312 55.6421C68.2165 55.0957 67.9663 54.4966 68.0782 53.7922C68.1112 53.6013 68.0651 53.542 67.8676 53.5618C67.2882 53.6145 66.7418 53.5223 66.2612 53.1734C66.1691 53.1075 66.0835 53.1141 65.9847 53.1405C64.1085 53.6803 62.4692 52.2715 61.9887 50.573C61.7122 49.592 61.7187 48.644 62.4363 47.8211C62.6075 47.6236 62.489 47.571 62.3376 47.4985C61.6134 47.143 61.0275 46.6361 60.5798 45.958C60.2967 45.5301 60.0795 45.0693 60.0071 44.5624C59.9676 44.2793 59.8952 44.2398 59.6187 44.3385C58.3152 44.8257 57.1894 44.4373 56.5179 43.3115C56.3862 43.0877 56.3007 42.8507 56.5706 42.6861C56.8273 42.5281 57.0117 42.673 57.1565 42.91C57.6173 43.6736 58.2098 43.9435 58.9932 43.7592C59.9083 43.5551 60.4811 42.9429 60.5667 42.1068C60.5732 42.0212 60.5667 41.9356 60.5864 41.8566C60.6259 41.6657 60.7444 41.5538 60.9419 41.567C61.1526 41.5735 61.2842 41.6855 61.2974 41.9027C61.3303 42.4294 61.1921 42.9034 60.8958 43.3445C60.8037 43.4827 60.6852 43.6012 60.6852 43.7921C60.6588 45.1154 61.3172 46.0502 62.4034 46.6954C63.4699 47.3274 64.5627 47.4064 65.6227 46.669C65.9057 46.4781 66.123 46.2148 66.3271 45.9449C66.4851 45.7342 66.676 45.642 66.9064 45.8066C67.1434 45.9844 67.0644 46.2016 66.9196 46.3991C66.1822 47.3801 65.2277 47.966 63.9637 47.9199C63.358 47.9001 62.9564 48.203 62.7326 48.7099C62.1072 50.1253 63.358 52.5414 65.2211 52.5216C65.5568 52.5216 65.6424 52.4558 65.4712 52.1266C65.3067 51.7975 65.254 51.4288 65.2277 51.0601C65.2145 50.8297 65.2737 50.6256 65.5568 50.6125C65.8202 50.5993 65.9387 50.7507 65.965 50.9943C65.9979 51.33 66.0637 51.6592 66.2152 51.9752C66.5114 52.5809 67.0052 52.8903 67.6767 52.8442C68.6444 52.7718 69.4278 52.3439 70.0072 51.5605C70.5075 50.8758 70.4219 50.2109 69.7899 49.6513C69.7372 49.6052 69.678 49.5657 69.6253 49.5196C69.441 49.355 69.3883 49.1641 69.5463 48.96C69.6977 48.7691 69.8952 48.7955 70.073 48.9337C70.9881 49.6052 71.3831 50.5993 70.784 51.7119C70.4812 52.2781 70.0269 52.6928 69.4937 53.022C68.8485 53.417 68.6378 54.0358 68.9407 54.7139C69.6056 56.2083 71.7649 57.0115 73.233 56.3202C73.6675 56.1161 73.9835 55.7738 74.2468 55.3854C74.3917 55.1681 74.5562 55.0365 74.7998 55.1879C75.0763 55.359 75.0039 55.5829 74.8525 55.8067C74.2337 56.7415 73.3778 57.255 72.2521 57.3209C70.8959 57.3999 69.9479 59.1181 70.5997 60.3163C71.0934 61.2248 71.8768 61.5869 72.8775 61.5276C73.1013 61.5145 73.3252 61.475 73.5424 61.4289C73.7794 61.3762 73.9769 61.4157 74.0493 61.6725C74.1152 61.9226 73.9703 62.0806 73.7399 62.1399C72.759 62.39 71.8044 62.344 70.9288 61.7712C69.4344 60.7903 69.204 58.789 70.4285 57.4657C70.5207 57.367 70.6194 57.2616 70.7511 57.1234L70.7445 57.1168Z" fill="#FEFEFE"></path><defs><linearGradient id="paint0_linear_826_170" x1="344.196" y1="173.181" x2="344.196" y2="-7.53799" gradientUnits="userSpaceOnUse"><stop stop-color="white"></stop><stop offset="0.17" stop-color="#FBFEFB"></stop><stop offset="0.3" stop-color="#F1FDF1"></stop><stop offset="0.42" stop-color="#E1FCE1"></stop><stop offset="0.53" stop-color="#C9FAC9"></stop><stop offset="0.64" stop-color="#AAF7AB"></stop><stop offset="0.74" stop-color="#85F486"></stop><stop offset="0.84" stop-color="#58F05A"></stop><stop offset="0.94" stop-color="#26EC28"></stop><stop offset="1" stop-color="#00E902"></stop></linearGradient><linearGradient id="paint1_linear_826_170" x1="308.08" y1="138.915" x2="308.08" y2="81.3834" gradientUnits="userSpaceOnUse"><stop offset="0.13" stop-color="white"></stop><stop offset="0.32" stop-color="#FCFEFB"></stop><stop offset="0.47" stop-color="#F3FDF1"></stop><stop offset="0.61" stop-color="#E5FBE1"></stop><stop offset="0.73" stop-color="#D0F8C9"></stop><stop offset="0.86" stop-color="#B6F4AA"></stop><stop offset="0.98" stop-color="#96F086"></stop><stop offset="1" stop-color="#8FEF7E"></stop></linearGradient><linearGradient id="paint2_linear_826_170" x1="357.653" y1="160.811" x2="357.653" y2="103.279" gradientUnits="userSpaceOnUse"><stop offset="0.13" stop-color="white"></stop><stop offset="0.34" stop-color="#FCFEFB"></stop><stop offset="0.5" stop-color="#F3FDF1"></stop><stop offset="0.65" stop-color="#E5FBE1"></stop><stop offset="0.8" stop-color="#D0F8C9"></stop><stop offset="0.93" stop-color="#B6F4AB"></stop><stop offset="1" stop-color="#A7F299"></stop></linearGradient><linearGradient id="paint3_linear_826_170" x1="44.4507" y1="380.787" x2="44.4507" y2="293.61" gradientUnits="userSpaceOnUse"><stop stop-color="white"></stop><stop offset="0.17" stop-color="#FBFEFB"></stop><stop offset="0.3" stop-color="#F1FDF1"></stop><stop offset="0.42" stop-color="#E1FCE1"></stop><stop offset="0.53" stop-color="#C9FAC9"></stop><stop offset="0.64" stop-color="#AAF7AB"></stop><stop offset="0.74" stop-color="#85F486"></stop><stop offset="0.84" stop-color="#58F05A"></stop><stop offset="0.94" stop-color="#26EC28"></stop><stop offset="1" stop-color="#00E902"></stop></linearGradient><linearGradient id="paint4_linear_826_170" x1="27.0246" y1="364.256" x2="27.0246" y2="336.507" gradientUnits="userSpaceOnUse"><stop offset="0.13" stop-color="white"></stop><stop offset="0.32" stop-color="#FCFEFB"></stop><stop offset="0.47" stop-color="#F3FDF1"></stop><stop offset="0.61" stop-color="#E5FBE1"></stop><stop offset="0.73" stop-color="#D0F8C9"></stop><stop offset="0.86" stop-color="#B6F4AA"></stop><stop offset="0.98" stop-color="#96F086"></stop><stop offset="1" stop-color="#8FEF7E"></stop></linearGradient><linearGradient id="paint5_linear_826_170" x1="50.9418" y1="379.319" x2="50.9418" y2="351.57" gradientUnits="userSpaceOnUse"><stop offset="0.13" stop-color="white"></stop><stop offset="0.34" stop-color="#FCFEFB"></stop><stop offset="0.5" stop-color="#F3FDF1"></stop><stop offset="0.65" stop-color="#E5FBE1"></stop><stop offset="0.8" stop-color="#D0F8C9"></stop><stop offset="0.93" stop-color="#B6F4AB"></stop><stop offset="1" stop-color="#A7F299"></stop></linearGradient></defs></svg>