<svg xmlns="http://www.w3.org/2000/svg" width="560" height="320" viewBox="0 0 560 320" fill="none"><g clip-path="url(#clip0_874_220)"><mask id="mask0_874_220" style="mask-type:luminance" maskUnits="userSpaceOnUse" x="-2" y="16" width="564" height="304"><path d="M561.639 16.6628H-1.62872V319.621H561.639V16.6628Z" fill="white"></path></mask><g mask="url(#mask0_874_220)"><path d="M583.245 -74.7927H-22.7418V359.555H583.245V-74.7927Z" fill="white"></path><path d="M385.314 196.715C386.953 193.856 381.805 189.018 387.818 187.257C393.84 185.496 389.718 183.991 389.577 182.201C389.497 181.188 394.885 178.367 395.841 177.799C397.51 176.824 398.012 173.179 399.52 171.645C400.415 170.736 404.869 170.178 402.868 167.83C401.199 165.87 402.366 157.491 406.709 158.665C411.052 159.839 411.223 157.567 411.223 157.567C411.223 157.567 412.982 156.194 412.982 155.371C412.982 153.979 411.977 153.392 412.731 152.218C414.601 149.302 416.159 149.576 417.497 149.87C418.834 150.163 420.503 149.652 421.508 148.772C422.513 147.891 420.915 144.303 425.268 144.152C431.532 143.934 430.114 142.76 432.789 142.173C435.463 141.586 436.167 140.298 437.805 139.901C442.32 138.802 443.315 142.911 447.336 141.737C451.348 140.563 452.856 142.031 454.857 141.737C456.867 141.444 457.692 140.563 459.703 140.563C461.713 140.563 461.543 142.466 464.217 141.586C466.891 140.705 466.228 139.976 469.566 139.976C472.903 139.976 476.754 142.466 476.754 142.466C476.754 142.466 480.303 144.928 481.771 144.227C484.526 142.911 484.274 139.976 488.628 141.15C492.971 142.324 493.805 144.227 496.822 144.521C499.828 144.814 503.658 151.612 505.508 152C507.247 152.36 509.52 155.522 511.189 154.935C512.857 154.348 518.075 154.66 520.217 156.914C521.474 158.23 523.122 159.536 524.731 159.337C529.416 158.75 530.995 160.294 535.016 164.393C539.028 168.502 538.706 160.076 542.788 162.632C546.297 164.829 551.062 162.282 553.817 162.263C556.19 162.244 561.005 164.611 561.669 166.949C562.332 169.297 560.251 175.375 559.578 177.136C558.904 178.897 555.315 181.311 555.315 181.311C555.315 181.311 545.955 190.4 532.915 191.868C519.875 193.335 519.543 188.052 509.51 193.922C499.476 199.782 484.767 192.748 481.761 193.335C478.755 193.922 473.064 194.215 464.046 198.618C455.018 203.02 427.269 212.109 423.257 210.055C419.246 208 408.217 208.881 404.537 205.946C400.857 203.011 387.777 207.574 386.098 204.649C384.429 201.714 384.067 198.892 385.304 196.715H385.314Z" fill="#3F250D"></path><path d="M421.277 163.276C425.308 164.033 425.459 162.566 425.459 162.566C425.459 162.566 427.088 161.676 427.088 161.146C427.088 160.246 426.153 159.868 426.857 159.101C428.596 157.217 430.034 157.387 431.27 157.576C432.507 157.766 434.055 157.434 434.99 156.866C435.915 156.298 434.437 153.969 438.479 153.875C444.29 153.733 442.973 152.975 445.456 152.597C447.94 152.218 448.583 151.385 450.101 151.12C454.284 150.41 455.219 153.07 458.929 152.303C462.648 151.546 464.046 152.492 465.906 152.303C467.766 152.114 468.54 151.546 470.4 151.546C472.26 151.546 472.099 152.776 474.582 152.208C477.066 151.64 476.442 151.167 479.539 151.167C482.636 151.167 486.205 152.786 486.205 152.786C486.205 152.786 489.492 154.376 490.85 153.922C493.041 153.193 493.192 151.697 495.716 151.763C495.324 151.574 494.941 151.442 494.569 151.413C492.116 151.224 491.443 149.984 487.904 149.226C484.365 148.469 484.566 150.362 482.324 151.224C481.127 151.678 478.242 150.088 478.242 150.088C478.242 150.088 475.115 148.469 472.391 148.469C469.666 148.469 470.209 148.942 468.037 149.51C465.856 150.078 465.996 148.847 464.358 148.847C462.719 148.847 462.045 149.415 460.417 149.605C458.788 149.794 457.561 148.847 454.294 149.605C451.026 150.362 450.212 147.702 446.542 148.421C445.205 148.677 444.632 149.51 442.46 149.898C440.279 150.277 441.435 151.034 436.338 151.176C432.789 151.271 434.096 153.6 433.271 154.168C432.457 154.736 431.089 155.068 430.004 154.878C428.918 154.689 427.651 154.509 426.123 156.393C425.51 157.15 426.324 157.539 426.324 158.438C426.324 158.978 424.896 159.858 424.896 159.858C424.896 159.858 424.755 161.326 421.217 160.568C418.432 159.972 417.255 163.2 417.537 165.217C418.16 163.92 419.407 162.916 421.297 163.266L421.277 163.276Z" fill="#543A25"></path><path d="M403.763 181.804C408.368 180.867 406.578 180.033 405.734 179.125C403.381 179.693 403.2 180.743 403.461 181.88C403.562 181.861 403.662 181.832 403.773 181.813L403.763 181.804Z" fill="#543A25"></path><path d="M411.203 175.678C412.751 175.044 413.214 172.687 414.611 171.692C415.436 171.105 419.568 170.746 417.708 169.221C417.446 169.004 417.265 168.672 417.155 168.275C416.441 168.54 415.647 168.739 415.345 168.985C414.118 169.979 413.706 172.336 412.349 172.971C411.565 173.33 407.171 175.167 407.242 175.82C407.282 176.208 407.694 176.587 408.036 176.947C409.353 176.379 410.771 175.849 411.203 175.678Z" fill="#543A25"></path><path d="M466.328 84.2512C466.328 84.2512 462.347 84.5636 460.728 78.7884C457.682 67.9387 454.545 67.9198 453.359 67.3517C451.78 66.6038 450.906 68.4689 450.906 68.4689C450.906 68.4689 458.084 66.7269 458.838 75.7021C459.562 84.2512 461.683 85.1316 463.614 86.1447C464.971 86.8642 466.137 87.0914 466.137 87.0914L466.328 84.2512Z" fill="#5EA30D"></path><path d="M424.011 70.0025C424.011 70.0025 432.225 59.5126 444.22 61.0652C450.353 61.8605 451.167 66.4428 452.524 66.9161C460.396 69.6806 459.311 74.6037 456.586 77.6806C451.539 83.38 439.474 79.3185 424.665 87.5173C418.029 91.1907 416.109 93.6806 416.109 93.6806C416.109 93.6806 415.184 80.6155 424.011 70.0025Z" fill="#5EA30D"></path><path d="M466.72 116.668C466.72 115.475 468.269 63.5458 466.328 53.6997C464.398 43.8535 460.728 43.2855 462.075 36.2228C462.85 32.1517 464.79 31.4701 465.564 25.7044C466.338 19.9387 463.051 19.7683 463.051 19.7683C463.051 19.7683 466.338 20.9517 460.919 28.0807C455.5 35.2097 454.324 40.5399 459.371 44.7151C466.147 50.3198 465.946 58.2914 465.564 66.102C465.262 72.2654 462.276 160.237 462.276 160.237C462.276 160.237 463.051 162.613 464.599 162.102C466.147 161.591 466.73 116.677 466.73 116.677L466.72 116.668Z" fill="#8DD33C"></path><path opacity="0.63" d="M419.226 88.1234C419.226 88.1234 421.84 77.5199 437.001 70.637C445.416 66.8122 450.443 67.3139 453.057 68.4216C455.671 69.5293 458.828 75.7021 450.534 78.0784C444.974 79.669 441.013 78.798 430.416 82.0358C422.654 84.4122 419.226 88.1329 419.226 88.1329V88.1234Z" fill="#8DD33C"></path><path opacity="0.63" d="M447.779 65.5624C449.9 65.9506 449.83 63.6216 447.889 62.2204C446.934 61.6808 445.738 61.2453 444.22 61.0465C432.225 59.5033 424.011 69.9837 424.011 69.9837C416.602 78.8832 416.059 89.5151 416.079 92.7056C417.818 88.8808 423.066 77.7944 427.209 73.3826C433.693 66.4808 445.165 65.0701 447.779 65.553V65.5624Z" fill="#8DD33C"></path><path d="M478.534 84.4499C478.534 84.4499 483.943 80.3221 486.557 78.8925C489.724 77.1505 499.808 72.4925 511.922 88.2747C525.596 106.092 531.638 109.652 532.131 109.387C532.623 109.132 516.577 109.132 508.353 106.519C500.129 103.915 478.634 88.0096 478.634 88.0096L478.534 84.4499Z" fill="#5EA30D"></path><path d="M463.614 160.379C463.614 160.379 464.277 111.735 467.645 101.832C471.013 91.9292 475.97 89.1458 475.97 89.1458C475.97 89.1458 473.788 84.715 474.582 82.8878C475.377 81.0606 478.152 79.9339 483.108 83.4085C488.065 86.883 495.293 98.9635 508.072 104.18C520.981 109.453 532.151 109.397 532.151 109.397C532.151 109.397 503.819 110.003 491.724 98.1872C482.686 89.3446 477.458 89.7612 476.171 91.1434C474.884 92.5351 470.621 93.7469 468.54 111.214C467.042 123.806 467.494 161.24 467.494 161.24C467.494 161.24 466.489 162.377 465.363 162.263C464.549 162.178 463.835 162.244 463.614 160.388V160.379Z" fill="#8DD33C"></path><path d="M447.397 158.968C439.424 164.611 458.355 160.284 463.795 163.825C469.002 167.214 477.237 157.709 481.751 160.048C480.866 157.775 474.773 155.077 472.471 155.087C469.716 155.106 464.951 157.652 461.442 155.456C454.223 150.93 463.533 150.893 453.168 155.674C450.162 156.772 447.849 158.656 447.397 158.968Z" fill="#543A25"></path><path d="M483.299 113.013C483.329 112.047 482.706 111.479 481.59 111.176C480.816 110.968 480.182 111.015 479.629 111.517C478.986 112.104 478.503 111.811 477.961 111.375C477.428 110.94 477.217 110.561 477.699 109.955C478.715 108.686 477.85 107.011 476.111 106.869C475.216 106.802 475.065 106.367 475.045 105.714C475.025 105.079 475.135 104.682 475.98 104.549C477.759 104.284 478.463 102.561 477.297 101.321C476.734 100.724 477.046 100.346 477.498 99.9007C477.971 99.4462 478.393 99.1906 479.087 99.6261C480.564 100.544 482.445 99.787 482.615 98.1965C482.696 97.4391 483.199 97.3255 483.892 97.3066C484.576 97.2876 485.089 97.3539 485.24 98.1113C485.541 99.7018 487.421 100.317 488.869 99.3042C489.573 98.8214 490.025 99.077 490.558 99.5125C491.101 99.9669 491.242 100.346 490.749 100.933C489.754 102.126 490.648 103.858 492.317 103.981C493.112 104.038 493.393 104.35 493.433 105.023C493.474 105.714 493.343 106.178 492.438 106.329C490.729 106.604 490.045 108.289 491.161 109.51C491.724 110.125 491.433 110.533 490.94 111.006C490.437 111.479 490.005 111.621 489.341 111.195C487.924 110.286 486.054 111.082 485.863 112.625C485.803 113.07 485.702 113.496 485.079 113.505C484.475 113.505 483.741 113.818 483.299 113.004V113.013ZM486.225 109.236C488.597 108.279 489.653 105.818 488.587 103.716C487.512 101.595 484.636 100.639 482.264 101.614C479.901 102.58 478.855 105.051 479.921 107.143C481.017 109.292 483.802 110.211 486.225 109.236Z" fill="#0F4281"></path><path d="M442.35 133.842C442.4 132.289 441.405 131.39 439.605 130.907C438.368 130.575 437.343 130.651 436.458 131.456C435.423 132.403 434.648 131.92 433.794 131.219C432.949 130.528 432.608 129.913 433.372 128.947C434.99 126.911 433.613 124.223 430.828 124.005C429.39 123.891 429.159 123.2 429.119 122.149C429.079 121.136 429.27 120.492 430.617 120.284C433.462 119.858 434.598 117.094 432.728 115.115C431.823 114.159 432.316 113.553 433.05 112.843C433.804 112.114 434.478 111.707 435.604 112.407C437.966 113.875 440.982 112.663 441.264 110.116C441.405 108.895 442.199 108.724 443.305 108.687C444.411 108.649 445.225 108.762 445.456 109.974C445.949 112.521 448.955 113.505 451.278 111.896C452.404 111.12 453.127 111.527 453.982 112.237C454.857 112.956 455.068 113.572 454.294 114.509C452.705 116.421 454.133 119.195 456.797 119.394C458.074 119.489 458.526 119.991 458.577 121.061C458.637 122.159 458.436 122.916 456.988 123.153C454.243 123.588 453.158 126.287 454.937 128.246C455.832 129.24 455.38 129.884 454.575 130.642C453.771 131.408 453.077 131.626 452.012 130.945C449.739 129.487 446.743 130.755 446.442 133.236C446.351 133.955 446.19 134.637 445.185 134.646C444.21 134.646 443.043 135.139 442.33 133.842H442.35ZM447.035 127.792C450.845 126.249 452.524 122.31 450.815 118.949C449.086 115.56 444.481 114.026 440.681 115.579C436.89 117.132 435.222 121.089 436.931 124.44C438.68 127.877 443.154 129.363 447.035 127.792Z" fill="#0F4281"></path><path d="M479.77 55.9717C479.821 54.419 478.825 53.5196 477.025 53.0368C475.789 52.7054 474.763 52.7812 473.879 53.5859C472.843 54.5326 472.069 54.0498 471.214 53.3492C470.37 52.6581 470.028 52.0427 470.792 51.077C472.411 49.0415 471.033 46.3528 468.248 46.135C466.811 46.0214 466.58 45.3303 466.539 44.2794C466.499 43.2664 466.69 42.6226 468.037 42.4143C470.883 41.9883 472.019 39.2238 470.149 37.2451C469.244 36.2889 469.736 35.6829 470.47 34.9729C471.224 34.2439 471.898 33.8368 473.024 34.5374C475.387 36.0048 478.403 34.793 478.684 32.2463C478.825 31.025 479.619 30.8545 480.725 30.8167C481.831 30.7788 482.646 30.8924 482.877 32.1042C483.369 34.651 486.376 35.6356 488.698 34.0261C489.824 33.2498 490.548 33.6569 491.403 34.367C492.277 35.0865 492.488 35.7019 491.714 36.6392C490.126 38.5516 491.553 41.3255 494.218 41.5244C495.494 41.619 495.947 42.1208 495.997 43.1906C496.057 44.2889 495.856 45.0463 494.409 45.2829C491.664 45.7184 490.578 48.4167 492.358 50.3764C493.252 51.3705 492.8 52.0143 491.996 52.7717C491.191 53.5386 490.498 53.7563 489.432 53.0747C487.16 51.6167 484.164 52.8853 483.862 55.3658C483.772 56.0853 483.611 56.767 482.605 56.7764C481.63 56.7764 480.464 57.2687 479.75 55.9717H479.77ZM484.455 49.9315C488.266 48.3883 489.945 44.4498 488.236 41.0889C486.506 37.6995 481.902 36.1658 478.101 37.7184C474.311 39.2711 472.642 43.2285 474.351 46.58C476.101 50.0167 480.575 51.5031 484.455 49.9315Z" fill="#0F4281"></path><path d="M502.452 66.7078C502.472 66.1682 502.12 65.8558 501.507 65.6854C501.074 65.5718 500.722 65.6002 500.421 65.8747C500.059 66.2061 499.797 66.0357 499.496 65.799C499.204 65.5623 499.084 65.3445 499.355 65.0132C499.918 64.3126 499.436 63.3753 498.47 63.2996C497.978 63.2617 497.887 63.025 497.877 62.6558C497.867 62.3055 497.927 62.0783 498.4 62.012C499.385 61.8605 499.777 60.9043 499.134 60.2226C498.822 59.8913 498.993 59.683 499.245 59.4368C499.506 59.1812 499.737 59.0392 500.129 59.2854C500.954 59.7966 501.989 59.3706 502.09 58.4901C502.14 58.0641 502.411 58.0072 502.793 57.9978C503.176 57.9883 503.457 58.0262 503.538 58.4427C503.708 59.3232 504.754 59.664 505.558 59.1055C505.95 58.8309 506.202 58.9824 506.493 59.2191C506.795 59.4652 506.875 59.683 506.604 60.0049C506.051 60.6676 506.544 61.6333 507.469 61.6996C507.911 61.7374 508.062 61.9078 508.082 62.2771C508.102 62.6558 508.032 62.9209 507.529 63.0061C506.574 63.1575 506.202 64.0948 506.815 64.7765C507.127 65.1173 506.966 65.3445 506.694 65.6096C506.413 65.8747 506.172 65.9504 505.8 65.7138C505.015 65.212 503.98 65.6475 503.869 66.509C503.839 66.7552 503.779 66.9919 503.437 67.0013C503.095 67.0013 502.693 67.1717 502.452 66.7268V66.7078ZM504.07 64.6155C505.387 64.0854 505.971 62.7126 505.377 61.5481C504.774 60.3741 503.186 59.8439 501.869 60.3836C500.552 60.9232 499.978 62.296 500.572 63.4605C501.175 64.6534 502.723 65.1646 504.07 64.625V64.6155Z" fill="#0F4281"></path><path d="M446.301 41.3067C446.321 40.7671 445.969 40.4546 445.356 40.2842C444.923 40.1706 444.572 40.199 444.27 40.4736C443.908 40.8049 443.647 40.6345 443.345 40.3978C443.053 40.1611 442.933 39.9434 443.204 39.612C443.767 38.9114 443.285 37.9742 442.32 37.8984C441.827 37.8606 441.736 37.6239 441.726 37.2546C441.716 36.9043 441.777 36.6771 442.249 36.6109C443.234 36.4594 443.627 35.5032 442.983 34.8215C442.671 34.4901 442.842 34.2819 443.094 34.0357C443.355 33.7801 443.586 33.6381 443.978 33.8842C444.803 34.3955 445.838 33.9694 445.939 33.089C445.989 32.6629 446.261 32.6061 446.643 32.5967C447.025 32.5872 447.306 32.6251 447.387 33.0416C447.558 33.9221 448.603 34.2629 449.408 33.7043C449.8 33.4298 450.051 33.5813 450.343 33.818C450.644 34.0641 450.725 34.2819 450.453 34.6038C449.9 35.2665 450.393 36.2322 451.318 36.2984C451.76 36.3363 451.911 36.5067 451.931 36.8759C451.951 37.2546 451.881 37.5197 451.378 37.6049C450.423 37.7564 450.051 38.6937 450.664 39.3753C450.976 39.7162 450.815 39.9434 450.544 40.2085C450.262 40.4736 450.021 40.5493 449.649 40.3126C448.865 39.8109 447.829 40.2464 447.718 41.1079C447.688 41.354 447.628 41.5907 447.286 41.6002C446.944 41.6002 446.542 41.7706 446.301 41.3256V41.3067ZM447.93 39.2144C449.247 38.6842 449.83 37.3114 449.237 36.1469C448.633 34.973 447.045 34.4428 445.728 34.9824C444.411 35.5221 443.838 36.8949 444.431 38.0594C445.034 39.2523 446.582 39.7635 447.93 39.2239V39.2144Z" fill="#0F4281"></path><path d="M470.199 22.2771C470.199 22.012 470.038 21.8511 469.726 21.7659C469.515 21.709 469.334 21.7185 469.183 21.8605C469.002 22.0215 468.872 21.9457 468.721 21.8227C468.57 21.6996 468.52 21.5954 468.651 21.425C468.932 21.0747 468.691 20.6108 468.208 20.573C467.957 20.554 467.917 20.4309 467.917 20.2511C467.917 20.0806 467.947 19.967 468.178 19.9292C468.671 19.8534 468.862 19.3801 468.54 19.0298C468.379 18.8593 468.47 18.7552 468.6 18.6321C468.731 18.509 468.852 18.4333 469.043 18.5564C469.455 18.812 469.968 18.6037 470.018 18.1588C470.038 17.9505 470.179 17.9221 470.37 17.9126C470.561 17.9126 470.702 17.9221 470.742 18.1398C470.822 18.5848 471.345 18.7552 471.747 18.4712C471.938 18.3386 472.069 18.4049 472.22 18.528C472.371 18.6511 472.411 18.7552 472.27 18.9256C471.999 19.257 472.24 19.7398 472.702 19.7682C472.923 19.7872 473.004 19.8724 473.014 20.0617C473.014 20.2511 472.994 20.3836 472.743 20.4215C472.27 20.4972 472.079 20.9611 472.391 21.3019C472.541 21.4724 472.471 21.586 472.33 21.7185C472.19 21.8511 472.069 21.8889 471.888 21.7659C471.496 21.5102 470.973 21.7375 470.923 22.1635C470.903 22.2866 470.883 22.4096 470.702 22.4096C470.531 22.4096 470.33 22.4948 470.209 22.2676L470.199 22.2771ZM471.003 21.2262C471.667 20.9611 471.958 20.2795 471.657 19.6925C471.355 19.1055 470.561 18.8404 469.907 19.1055C469.254 19.3706 468.962 20.0617 469.254 20.6392C469.555 21.2357 470.33 21.4913 471.003 21.2167V21.2262Z" fill="#0F4281"></path><path d="M425.851 61.2263C425.851 60.9612 425.69 60.8003 425.379 60.7151C425.168 60.6583 424.987 60.6677 424.836 60.8097C424.655 60.9707 424.524 60.895 424.373 60.7719C424.223 60.6488 424.172 60.5447 424.303 60.3742C424.585 60.024 424.343 59.56 423.861 59.5222C423.609 59.5032 423.569 59.3802 423.569 59.2003C423.569 59.0299 423.599 58.9163 423.831 58.8784C424.323 58.8026 424.514 58.3293 424.192 57.979C424.032 57.8086 424.122 57.7044 424.253 57.5814C424.383 57.4583 424.504 57.3825 424.695 57.5056C425.107 57.7612 425.62 57.5529 425.67 57.108C425.69 56.8997 425.831 56.8713 426.022 56.8618C426.213 56.8618 426.354 56.8713 426.394 57.089C426.475 57.534 426.997 57.7044 427.4 57.4204C427.591 57.2878 427.721 57.3541 427.872 57.4772C428.023 57.6003 428.063 57.7044 427.922 57.8748C427.651 58.2062 427.892 58.689 428.355 58.7174C428.576 58.7364 428.656 58.8216 428.666 59.0109C428.666 59.2003 428.646 59.3328 428.395 59.3707C427.922 59.4464 427.731 59.9103 428.043 60.2512C428.194 60.4216 428.124 60.5352 427.983 60.6677C427.842 60.8003 427.721 60.8382 427.54 60.7151C427.148 60.4595 426.625 60.6867 426.575 61.1127C426.555 61.2358 426.535 61.3589 426.354 61.3589C426.183 61.3589 425.982 61.4441 425.861 61.2169L425.851 61.2263ZM426.666 60.1754C427.329 59.9103 427.621 59.2287 427.319 58.6417C427.018 58.0547 426.223 57.7896 425.57 58.0547C424.916 58.3198 424.625 59.0109 424.916 59.5884C425.218 60.1849 425.992 60.4405 426.666 60.166V60.1754Z" fill="#0F4281"></path><path d="M426.817 118.646C426.817 118.381 426.656 118.22 426.344 118.135C426.133 118.078 425.952 118.088 425.801 118.23C425.62 118.391 425.489 118.315 425.339 118.192C425.188 118.069 425.137 117.965 425.268 117.794C425.55 117.444 425.308 116.98 424.826 116.942C424.574 116.923 424.534 116.8 424.534 116.62C424.534 116.45 424.564 116.336 424.796 116.298C425.288 116.223 425.479 115.749 425.158 115.399C424.997 115.228 425.087 115.124 425.218 115.001C425.349 114.878 425.469 114.802 425.66 114.926C426.073 115.181 426.585 114.973 426.636 114.528C426.656 114.32 426.796 114.291 426.987 114.282C427.178 114.282 427.319 114.291 427.359 114.509C427.44 114.954 427.963 115.124 428.365 114.84C428.556 114.708 428.687 114.774 428.837 114.897C428.988 115.02 429.028 115.124 428.888 115.295C428.616 115.626 428.857 116.109 429.32 116.137C429.541 116.156 429.622 116.241 429.632 116.431C429.632 116.62 429.611 116.753 429.36 116.791C428.888 116.866 428.697 117.33 429.008 117.671C429.159 117.841 429.089 117.955 428.948 118.088C428.807 118.22 428.687 118.258 428.506 118.135C428.113 117.879 427.591 118.107 427.54 118.533C427.52 118.656 427.5 118.779 427.319 118.779C427.148 118.779 426.947 118.864 426.827 118.637L426.817 118.646ZM427.621 117.605C428.284 117.34 428.576 116.658 428.274 116.071C427.973 115.484 427.178 115.219 426.525 115.484C425.871 115.749 425.58 116.44 425.871 117.018C426.173 117.614 426.947 117.87 427.621 117.595V117.605Z" fill="#0F4281"></path><path d="M687.413 163.219C597.491 163.077 507.569 162.926 417.647 162.765C405.382 162.746 393.116 162.708 380.85 162.66C380.529 162.66 380.217 162.641 379.895 162.623L305.738 164.459C307.025 171.153 308.302 177.25 309.307 183.385C309.639 185.401 310.704 186.045 312.796 186.452C323.443 188.526 334.039 190.779 344.676 192.881C346.758 193.297 348.065 194.178 349.13 195.853C356.54 207.432 364.121 218.916 371.52 230.495C372.747 232.407 374.255 233.42 376.658 233.969C396.072 238.334 415.456 242.802 434.829 247.271C436.086 247.565 437.634 247.915 438.378 248.72C447.286 258.395 456.164 268.099 464.85 277.936C468.188 281.714 471.405 285.397 476.211 287.915C482.274 291.096 488.075 294.684 493.956 298.14C494.972 298.736 495.856 299.494 496.791 300.175H690.821V163.049C689.685 163.105 688.549 163.2 687.402 163.2L687.413 163.219Z" fill="#0F4281"></path><path d="M304.159 164.223L418.824 167.176L478.664 181.226L690.831 178.642V162.007H345.591C345.591 162.007 304.159 161.638 304.159 164.223Z" fill="#2160A2"></path><path d="M111.91 208.72H-75.1425C-75.5145 209.146 -75.6955 209.799 -75.6955 210.803C-75.6352 254.855 -75.6955 298.907 -75.7056 342.949C-75.7056 343.602 -75.5548 344.265 -75.4442 345.212C-67.8032 340.781 -60.474 336.625 -53.2553 332.298C-50.8022 330.831 -48.2987 329.203 -46.4589 327.195C-36.7066 316.582 -27.2057 305.78 -17.4636 295.148C-16.2068 293.785 -14.1961 292.563 -12.2858 292.109C7.06786 287.546 26.4718 283.134 45.8758 278.75C48.0172 278.268 49.475 277.444 50.6111 275.674C58.061 264.01 65.6718 252.431 73.1519 240.786C74.1975 239.158 75.4039 238.163 77.5957 237.813C88.102 236.1 98.558 234.149 109.084 232.511C111.809 232.085 113.015 231.309 113.056 228.753C113.126 223.716 113.568 218.679 113.82 213.643L111.92 208.71L111.91 208.72Z" fill="#0F4281"></path><path d="M-77.0126 221.302L-59.4384 226.111L-2.52354 213.908L113.81 209.089L-81.4363 207.631L-77.0126 221.302Z" fill="#2160A2"></path><path d="M336.01 72.502C336.01 72.502 335.397 68.3742 336.473 67.0866C337.548 65.7896 340.695 64.1517 341.037 64.644C341.379 65.1363 338.855 67.844 338.966 68.3742C339.066 68.9044 338.865 69.8701 339.348 69.5576C339.83 69.2452 340.383 68.289 340.675 68.4026C340.967 68.5068 340.132 70.0026 340.223 70.5991C340.313 71.1955 338.302 72.7766 338.071 73.5624C337.84 74.3482 336.02 72.502 336.02 72.502H336.01Z" fill="#FFEBDE"></path><path d="M275.436 127.309C275.978 127.461 283.428 128.72 283.428 128.72C283.428 128.72 281.106 133.766 280.865 133.7C280.623 133.633 271.595 132.071 271.595 132.071L275.446 127.319L275.436 127.309Z" fill="#FFEBDE"></path><path d="M341.097 143.281L346.557 148.488C346.557 148.488 340.725 150.571 340.474 150.022C340.223 149.472 336.995 144.758 336.995 144.758L341.087 143.281H341.097Z" fill="#FFEBDE"></path><path d="M343.078 143.394C343.078 143.394 327.816 117.633 316.023 112.587L314.414 107.759C314.414 107.759 306.1 103.593 301.013 106.111C295.925 108.63 297.534 115.541 297.534 115.541L298.529 130.888L280.161 126.836L278.552 135.063L301.013 139.115C301.013 139.115 308.583 139.882 308.332 131.882C308.08 123.882 310.322 118.4 310.322 118.4C310.322 118.4 326.208 126.182 337.126 146.026C342.213 143.83 343.088 143.394 343.088 143.394H343.078Z" fill="#183C56"></path><path d="M313.57 65.619C313.57 65.619 314.997 66.916 314.555 70.3338L315.631 71.451C315.631 71.451 317.059 72.8616 316.123 73.0131H315.199C315.199 73.0131 315.943 74.7646 315.44 75.3705C314.937 75.9859 313.238 76.9231 311.991 76.9705L312.796 79.8391L308.804 80.7575L304.913 78.7882L305.517 70.9018C305.517 70.9018 304.853 66.632 307.749 65.6474C310.644 64.6628 313.55 65.6285 313.55 65.6285L313.57 65.619Z" fill="#FFEBDE"></path><path d="M308.865 67.257C308.633 66.5469 311.7 66.2913 314.304 66.8309C316.636 67.3232 314.716 63.6025 314.163 62.7031C314.093 62.599 313.63 62.1351 312.836 62.0783C311.599 61.9931 305.848 61.8321 305.175 64.4641C305.145 64.5682 305.074 64.6534 304.974 64.7008C304.28 65.0132 301.656 66.3102 301.847 67.8156C302.038 69.3209 304.954 75.0203 305.476 76.0333C305.527 76.1374 305.637 76.2132 305.768 76.2226C306.351 76.2984 308 76.3457 309.307 74.6984C309.428 74.5469 309.397 74.3481 309.237 74.225C308.603 73.7706 307.407 72.9374 307.206 72.3315C307.155 72.18 307.166 72.0002 307.236 71.8297C307.538 71.025 308.804 70.9398 309.317 71.6688L309.749 72.2937C309.749 72.2937 310.001 72.5682 310.192 72.5398C310.413 72.5019 310.554 72.3221 310.503 72.1232C310.373 71.6215 310.192 70.6084 310.373 69.2735C310.383 69.1694 310.353 69.0747 310.272 68.999C309.94 68.6866 309.046 67.8156 308.865 67.2475V67.257Z" fill="#3A374C"></path><path opacity="0.48" d="M311.971 77.1884C311.971 77.1884 309.89 77.0937 309.046 76.4878C309.046 76.4878 312.192 77.1032 312.816 76.8381L311.971 77.1884Z" fill="#D48D7A"></path><path d="M301.003 77.8321L304.934 76.9517L308.744 80.3126L312.946 77.8321L317.471 79.0061L315.209 106.339L310.825 108.99L302.299 108.393C302.299 108.393 298.328 90.4144 298.66 89.3919C298.992 88.3694 301.023 77.8416 301.023 77.8416L301.003 77.8321Z" fill="white"></path><path d="M308.392 80.5304L307.899 81.5529L309.699 82.2062C309.699 82.2062 310.694 84.9991 310.383 86.0405C310.071 87.0819 309.719 91.9103 306.673 92.5636C303.627 93.2168 304.24 98.1588 304.24 98.1588C304.24 98.1588 311.931 94.9778 312.434 86.3151C312.434 85.8227 310.704 81.9316 310.704 81.9316L311.318 80.7482L310.946 79.9624L308.402 80.5304H308.392Z" fill="#BE1E2D"></path><path d="M339.851 148.876C339.851 148.876 344.073 149.311 346.054 147.229C349.653 147.229 358.34 146.168 357.968 148.071C357.596 149.974 339.227 153.695 339.227 153.695C339.227 153.695 337.739 149.529 339.851 148.867V148.876Z" fill="#560D0D"></path><path d="M277.245 127.404C277.245 127.404 273.877 127.811 275.255 133.633C275.255 133.633 264.698 142.93 265.07 137.865C265.442 132.8 273.847 124.166 273.847 124.166C273.847 124.166 278.552 125.292 277.245 127.404Z" fill="#560D0D"></path><path d="M272.912 102.173L267.905 105.316C267.905 105.316 267.413 108.45 271.022 109.198L277.084 105.685L272.902 102.173H272.912Z" fill="#FCD7C3"></path><path d="M272.892 107.115L272.751 106.935C272.54 106.67 272.61 106.31 272.902 106.121L274.671 105.013C274.963 104.824 275.385 104.89 275.586 105.146L275.727 105.326C275.938 105.591 275.868 105.95 275.576 106.14L273.807 107.247C273.515 107.437 273.093 107.371 272.892 107.115Z" fill="#FFEBDE"></path><path d="M272.47 110.116L268.488 112.625" stroke="black" stroke-width="2" stroke-miterlimit="10"></path><path d="M272.661 109.283C272.872 109.548 272.781 109.917 272.47 110.116" stroke="black" stroke-width="2" stroke-miterlimit="10"></path><path d="M268.317 103.886L272.661 109.283" stroke="black" stroke-width="2" stroke-miterlimit="10"></path><path d="M267.362 103.773C267.684 103.574 268.106 103.622 268.317 103.887" stroke="black" stroke-width="2" stroke-miterlimit="10"></path><path d="M263.381 106.272L267.362 103.773" stroke="black" stroke-width="2" stroke-miterlimit="10"></path><path d="M267.443 106.452L267.332 106.32C267.171 106.121 267.221 105.846 267.453 105.704L269.484 104.426C269.705 104.284 270.016 104.332 270.177 104.53L270.288 104.663C270.449 104.862 270.399 105.136 270.167 105.278L268.136 106.556C267.915 106.698 267.604 106.651 267.443 106.452Z" fill="#FFEBDE"></path><path d="M267.976 107.532L267.865 107.399C267.704 107.2 267.754 106.926 267.986 106.784L270.017 105.506C270.238 105.364 270.549 105.411 270.71 105.61L270.821 105.742C270.982 105.941 270.931 106.216 270.7 106.358L268.669 107.636C268.448 107.778 268.136 107.73 267.976 107.532Z" fill="#FFEBDE"></path><path d="M268.569 108.564L268.458 108.431C268.297 108.232 268.348 107.958 268.579 107.816L270.61 106.538C270.831 106.396 271.143 106.443 271.303 106.642L271.414 106.774C271.575 106.973 271.525 107.248 271.293 107.39L269.262 108.668C269.041 108.81 268.73 108.762 268.569 108.564Z" fill="#FFEBDE"></path><path d="M269.725 109.283L269.614 109.151C269.453 108.952 269.504 108.677 269.735 108.535L271.766 107.257C271.987 107.115 272.299 107.162 272.46 107.361L272.57 107.494C272.731 107.693 272.681 107.967 272.45 108.109L270.419 109.387C270.197 109.529 269.886 109.482 269.725 109.283Z" fill="#FFEBDE"></path><path d="M256.967 124.346L246.35 111.148C244.982 109.444 245.435 107.077 247.355 105.875L255.75 100.601C257.68 99.3895 260.355 99.7871 261.722 101.491L272.339 114.689C273.706 116.393 273.254 118.76 271.334 119.962L262.939 125.236C261.008 126.447 258.334 126.05 256.967 124.346Z" fill="#634739"></path><path d="M266.206 123.323L250.552 103.867L251.548 103.233L267.211 122.689L266.206 123.323Z" fill="#9F7159"></path><path d="M268.921 121.619L253.267 102.163L254.272 101.529L269.926 120.985L268.921 121.619Z" fill="#9F7159"></path><path d="M256.705 109.87L256.042 109.046L263.853 104.142L264.517 104.966L256.705 109.87Z" fill="#9F7159"></path><path d="M263.321 118.088L262.647 117.264L270.469 112.36L271.132 113.184L263.321 118.088Z" fill="#9F7159"></path><path d="M301.003 77.832C301.003 77.832 309.94 80.2462 305.346 102.608C301.867 116.384 300.138 116.857 300.138 116.857L292.316 115.872C292.316 115.872 292.688 105.023 295.423 100.194C298.157 95.3658 295.423 92.1942 295.423 92.1942C295.423 92.1942 282.634 98.774 277.678 106.007C271.253 104.473 270.107 103.375 270.107 103.375L291.451 84.4119C291.451 84.4119 296.539 78.8166 301.013 77.832H301.003Z" fill="#0C2334"></path><path d="M313.168 81.3352C313.168 81.3352 314.163 101.614 313.168 104.578C312.172 107.541 314.766 108.81 314.766 108.81C314.766 108.81 318.758 112.464 317.642 85.3873C326.077 85.5009 338.121 80.237 340.474 73.8748L335.015 71.0251C335.015 71.0251 328.57 77.0464 325.584 77.8228C323.674 78.3151 318.788 79.9719 314.907 78.3719L313.168 81.3352Z" fill="#0C2334"></path><path d="M148.606 116.885C148.214 118.182 147.45 119.707 146.535 120.152C145.489 120.653 145.097 121.269 145.097 121.269L144.172 120.89L143.066 120.436C143.066 120.436 143.076 120.332 143.117 120.161C143.147 119.991 143.207 119.754 143.278 119.489C143.278 119.489 143.559 119.101 143.318 118.656C143.076 118.211 143.036 117.501 143.318 117.046C143.609 116.582 143.82 115.494 144.022 115.513C144.524 115.55 143.941 117.065 144.182 117.321C144.394 117.548 144.625 117.444 144.665 117.425C145.982 116.781 147.349 113.761 148.124 114.083C148.415 114.206 148.747 116.346 148.586 116.895L148.606 116.885Z" fill="#FFCFCA"></path><path d="M118.475 113.108C118.475 113.108 128.669 125.889 132.118 128.114L142.966 119.47C142.966 119.47 144.705 119.792 145.61 121.231C145.61 121.231 139.879 134.561 132.962 135.678C126.045 136.795 114.584 121.79 114.584 121.79L118.475 113.117V113.108Z" fill="#2D2D2D"></path><path d="M108.391 206.609L103.323 207.025C102.65 206.77 102.006 206.116 101.725 205.094C101.323 203.674 99.4125 203.039 98.8897 201.894C98.3669 200.748 100.217 198.921 100.217 198.921L100.518 198.504L100.83 198.078L104.269 198.495C104.269 198.495 104.429 199.196 104.57 200.095C104.681 200.739 104.771 201.487 104.801 202.149C104.872 203.73 105.646 205.368 107.255 205.548C108.451 205.681 108.461 206.296 108.381 206.609H108.391Z" fill="#560D0D"></path><path d="M134.943 191.243L129.021 189.217C129.242 188.677 129.273 187.91 129.564 187.295C130.358 185.572 130.449 184.388 130.449 184.388C130.891 183.64 133.636 184.729 134.219 184.994C134.812 185.269 133.867 186.623 133.817 188.137C133.787 188.914 134.239 190.637 134.943 191.243Z" fill="#FFCFCA"></path><path d="M141.005 194.329L128.619 192.256C128.157 191.517 128.89 189.179 129.142 188.421C129.192 188.27 129.222 188.175 129.222 188.175C129.222 188.175 134.098 185.894 134.179 188.279C134.179 188.355 134.179 188.431 134.199 188.497C134.47 190.76 137.547 192.284 139.387 192.871C140.583 193.25 140.915 193.894 140.995 194.32L141.005 194.329Z" fill="#560D0D"></path><path d="M126.85 148.261C126.85 148.261 118.565 173.132 112.643 184.985C106.722 196.838 106.42 200.171 106.42 200.171C106.42 200.171 99.2617 198.201 98.7892 197.255L107.466 170.661C107.466 170.661 109.326 157.974 109.145 154.822C108.964 151.669 109.115 145.373 109.115 145.373L126.85 148.27V148.261Z" fill="#EDE5D1"></path><path opacity="0.1" d="M125.09 144.029C125.09 144.029 127.101 142.239 127.201 147.958L121.471 163.172C121.451 163.049 116.826 146.945 116.826 146.945L125.09 144.038V144.029Z" fill="black"></path><path d="M120.445 113.534C116.343 115.068 109.004 112.313 109.004 112.313C109.004 112.313 112.302 109.577 111.527 104.218L115.046 106.272L117.439 107.674C117.439 107.674 117.53 108.611 117.459 110.258C117.439 110.694 117.399 111.375 117.791 111.688C119.349 112.909 120.435 113.534 120.435 113.534H120.445Z" fill="#FFCFCA"></path><path d="M117.449 107.683C117.449 107.683 117.54 108.62 117.469 110.268C114.966 110.097 111.799 106.812 111.799 106.812C113.015 106.386 114.111 106.244 115.056 106.282L117.449 107.683Z" fill="#FCB9B4"></path><path d="M118.726 107.484C118.726 107.484 111.849 109.084 110.783 105.288C109.718 101.491 108.109 99.134 112.462 97.9506C116.806 96.7671 118.073 98.0263 118.776 99.2192C119.48 100.412 120.485 106.964 118.726 107.484Z" fill="#FFCFCA"></path><path d="M130.037 147.759C129.916 147.863 129.775 147.929 129.604 147.948C128.016 148.062 123.461 149.226 119.51 149.188C116.172 149.188 113.156 148.564 109.889 147.579C109.456 147.446 108.451 147.077 108.421 146.661C108.391 146.206 108.371 145.553 108.34 144.72C108.26 141.842 108.119 136.881 107.144 131.229C106.963 130.178 106.812 129.127 106.702 128.095C105.847 120.398 106.862 113.477 110.09 110.902C110.371 110.694 112.271 111.328 114.021 111.915C115.64 112.464 116.856 112.436 118.294 112.048L120.214 113.042C122.144 114.358 124.306 116.175 125.472 119.12C126.468 121.619 127.382 126.211 128.116 130.983C128.448 133.141 128.77 135.328 129.011 137.401V137.477C129.061 137.685 129.082 137.903 129.112 138.112C129.765 143.442 130.127 147.674 130.027 147.759H130.037Z" fill="#383838"></path><path opacity="0.2" d="M108.35 144.72C108.27 141.842 108.129 136.881 107.154 131.229C106.973 130.178 106.822 129.127 106.712 128.095C107.828 124.876 108.773 122.528 108.773 122.528L112.422 122.225C112.422 122.225 116.806 138.14 108.35 144.72Z" fill="black"></path><path d="M91.6007 164.554L107.365 165.226C109.416 165.311 111.176 163.901 111.276 162.092L111.608 156.062C111.708 154.253 110.11 152.691 108.059 152.606L92.2944 151.934C90.2434 151.849 88.484 153.259 88.3835 155.068L88.0517 161.098C87.9512 162.907 89.5497 164.469 91.6007 164.554Z" fill="#5E2818"></path><path d="M109.125 154.301C108.582 153.373 107.556 152.682 106.34 152.521C106.219 152.502 106.098 152.492 105.978 152.492L102.841 152.36L102.911 151.053C102.931 150.76 102.811 150.485 102.59 150.268C102.368 150.05 102.067 149.927 101.735 149.908L100.921 149.87L97.623 149.728L97.0298 149.699C96.3461 149.671 95.763 150.135 95.7329 150.741L95.6625 152.047L90.2435 151.82C88.1824 151.735 86.423 153.146 86.3225 154.973L85.9907 161.079C85.8901 162.897 87.4988 164.459 89.5497 164.544L105.284 165.217C105.566 165.226 105.837 165.217 106.098 165.169C106.521 165.103 106.923 164.98 107.285 164.8C108.381 164.26 109.145 163.247 109.215 162.064L109.547 155.957C109.577 155.361 109.426 154.793 109.145 154.301H109.125ZM96.4869 150.788C96.497 150.608 96.6377 150.457 96.8287 150.41C96.8689 150.4 96.9192 150.391 96.9695 150.4L97.6733 150.428L100.267 150.542L101.685 150.599C101.936 150.608 102.137 150.798 102.127 151.025L102.057 152.331L96.4266 152.095L96.497 150.798L96.4869 150.788Z" fill="#703723"></path><path d="M101.333 145.629C101.333 145.629 100.669 146.348 100.84 147.257C101.273 149.52 101.071 150.571 99.4427 150.94C99.4427 150.94 97.5124 151.432 97.3817 150.41C97.3817 150.41 98.3066 150.343 97.9648 148.923C97.5627 147.295 97.5828 147.276 98.7188 146.31L99.4025 145.061L101.333 145.619V145.629Z" fill="#FFCFCA"></path><path d="M99.5533 146.755C100.891 146.869 102.308 146.66 102.308 146.66C102.308 146.66 105.083 135.697 105.475 134.684C105.877 133.671 115.73 121.25 115.73 121.25L110.029 111.423C110.029 111.423 99.9253 130.102 98.9702 132.687C97.3918 136.956 97.6733 146.225 97.6733 146.225C97.6733 146.225 98.4977 146.66 99.5533 146.755Z" fill="#383838"></path><path d="M110.743 104.919C110.743 104.919 111.447 104.758 111.236 103.887C111.025 103.025 110.904 101.879 111.739 102.031C112.563 102.173 112.664 102.741 112.955 102.381C113.247 102.021 113.106 100.62 115.489 100.327C117.871 100.033 118.917 100.687 119.983 100.166C121.048 99.6451 120.948 98.1493 120.948 98.1493C120.948 98.1493 120.687 98.7079 120.224 98.9161C120.224 98.9161 121.843 96.5209 119.53 95.167C117.218 93.8132 115.137 94.9966 113.9 95.167C111.176 95.5363 109.426 95.8297 108.702 97.496C107.978 99.1623 108.813 103.536 110.733 104.919H110.743Z" fill="#3A374C"></path><path d="M100.388 147.096C100.388 147.096 101.252 147.759 101.333 148.052C101.594 149.009 102.006 149.397 101.836 149.51C101.474 149.756 100.901 149.084 100.589 148.459C100.277 147.835 100.388 147.087 100.388 147.087V147.096Z" fill="#FFCFCA"></path><path d="M128.75 147.768L149.28 157.614C150.828 158.362 151.441 160.142 150.647 161.6L136.481 187.56L128.468 186.168C128.468 186.168 134.299 170.945 136.833 167.214C137.285 166.552 136.974 165.671 136.2 165.387L113.036 156.753L109.678 149.88L128.76 147.768H128.75Z" fill="#EDE5D1"></path><path d="M196.965 193.79L215.183 190.201L259.359 170.793C259.359 170.793 269.594 166.656 268.84 172.838C273.334 170.793 283.066 168.218 282.322 176.152C286.817 174.826 297.303 175.707 291.311 183.65C285.319 191.584 245.033 209.666 245.033 209.666L183.232 217.382C183.232 217.382 170.755 201.723 175.741 200.407C180.728 199.091 196.955 193.79 196.955 193.79H196.965Z" fill="#E98972"></path><path d="M208.678 116.1C209.482 114.424 212.589 114.907 215.876 117.359C219.999 120.445 223.779 125.311 225.8 126.343C227.82 127.375 233.762 134.807 235.069 135.404C236.376 136 238.538 136.881 239.372 137.79C241.514 140.109 241.102 140.431 241.162 141.397C241.212 142.145 241.624 144.123 239.754 142.116C238.9 141.198 236.205 138.926 236.215 139.323C236.236 139.711 237.171 140.8 237.331 141.236C237.502 141.671 237.271 142.012 236.949 142.088C236.618 142.163 235.632 141.113 235.27 140.677C234.908 140.242 233.571 138.708 233.28 138.083C232.998 137.458 231.39 135.64 229.439 134.381C227.489 133.122 223.708 130.395 222.834 129.648C221.969 128.9 215.122 124.346 212.629 122.519C209.16 119.991 207.652 118.22 208.678 116.1Z" fill="#FFCFCA"></path><path d="M210.498 112.095C210.498 112.095 211.825 109.633 211.825 108.327C211.825 107.02 208.899 104.833 208.859 102.116C208.819 99.3894 211.191 96.0664 215.756 96.4166C222.633 96.9468 221.577 101.595 221.537 103.262C221.436 106.869 220.34 108.772 219.828 109.188C219.285 109.624 218.943 109.889 217.173 109.094C216.641 109.756 216.118 113.051 216.44 114.073C216.771 115.086 210.498 112.104 210.498 112.104V112.095Z" fill="#FFCFCA"></path><path d="M184.579 176.824C184.579 176.824 183.774 177.733 182.055 178.689C180.376 179.626 178.697 180.545 178.939 180.98C179.19 181.416 183.191 186.585 185.534 187.787C187.876 188.99 185.866 186.736 185.745 186.187C185.624 185.638 184.428 183.044 185.413 181.851C186.399 180.649 187.575 179.948 187.263 179.399C186.952 178.85 185.413 176.464 184.579 176.824Z" fill="#FFCFCA"></path><path d="M221.668 186.074C221.668 186.074 221.607 189.122 221.919 189.889C222.231 190.656 229.379 190.542 230.977 189.34C232.576 188.138 227.157 187.863 226.111 186.945C225.639 186.528 225.116 185.373 225.116 185.373L221.678 186.083L221.668 186.074Z" fill="#FFCFCA"></path><path d="M207.25 145.013C207.25 145.013 202.123 158.163 200.152 160.777C198.182 163.39 186.057 172.611 183.423 177.259C183.423 177.259 185.061 180.743 188.027 180.601C188.027 180.601 194.814 173.558 199.82 170.926C204.083 168.682 206.607 166.741 207.512 164.781C208.416 162.821 218.923 146.623 218.923 146.623L207.25 145.023V145.013Z" fill="#212121"></path><path d="M206.014 137.468C206.014 137.468 204.154 141.709 204.425 144.777C204.948 150.694 213.574 163.39 214.559 166.003C215.545 168.616 213.494 172.687 215.464 176.89C217.435 181.103 220.893 186.471 220.974 186.765C221.054 187.058 225.156 187.427 226.031 185.572C225.166 183.072 223.598 178.348 223.015 174.059C222.442 169.78 222.361 164.327 222.2 161.638C222.04 158.949 218.913 137.951 218.913 137.951C218.913 137.951 215.625 138.121 206.004 137.458L206.014 137.468Z" fill="#333333"></path><path d="M216.781 113.647C216.781 113.647 213.273 111.64 210.377 111.64C209.472 112 205.682 116.914 205.27 119.678C204.857 122.433 205.933 136.672 204.656 139.068C204.656 139.068 216.902 141.794 221.175 140.516C221.175 140.516 218.531 136.568 218.119 133.34C217.545 128.814 220.24 125.756 219.456 121.543C219.074 119.489 216.701 115.352 216.781 113.657V113.647Z" fill="#6768A9"></path><path d="M212.036 117.084C210.558 115.825 207.904 117.33 205.963 120.729C203.52 124.989 202.193 130.774 200.786 132.421C199.378 134.069 197.186 142.959 196.251 143.962C195.306 144.956 193.708 146.518 193.336 147.645C192.391 150.514 192.913 150.665 193.275 151.584C193.557 152.284 194.06 154.253 194.884 151.763C195.266 150.627 196.754 147.607 196.905 147.967C197.056 148.336 196.684 149.652 196.714 150.107C196.754 150.561 197.106 150.807 197.448 150.76C197.79 150.722 198.232 149.415 198.373 148.885C198.513 148.355 199.076 146.49 199.056 145.808C199.046 145.136 199.72 142.911 200.967 141.075C202.213 139.247 204.485 135.432 204.958 134.447C205.431 133.463 209.724 126.911 211.222 124.374C213.293 120.852 213.906 118.703 212.026 117.103L212.036 117.084Z" fill="#FFCFCA"></path><path d="M181.301 179.115C181.301 179.115 180.788 180.336 182.307 181.141C183.583 181.832 185.624 181.69 185.524 182.845C185.413 184.104 185.805 186.263 186.952 187.503C187.796 188.412 190.219 190.135 189.676 190.561C189.284 190.874 185.353 191.442 181.07 187.73C176.566 183.82 176.425 181.785 176.636 181.378C176.908 180.829 178.999 179.39 181.311 179.115H181.301Z" fill="#3A374C"></path><path d="M221.094 98.0451C224.674 104.275 212.921 102.476 212.066 109.084C211.292 115.049 207.17 113.894 205.42 119.016C203.55 118.457 200.906 115.124 205.622 109.453C208.869 105.553 206.466 102.514 207.813 99.3138C210.488 92.9422 219.566 95.3942 221.084 98.0451H221.094Z" fill="#3A374C"></path><path d="M225.176 192.691C225.176 192.691 260.375 177.922 267.614 173.946" stroke="#D4745E" stroke-miterlimit="10"></path><path d="M221.688 188.052C221.688 188.052 222.16 189.879 224.211 189.406C226.262 188.933 225.448 187.768 226.131 187.295C226.564 187.001 227.589 187.181 229.841 187.626C232.707 188.194 237.281 188.45 237.291 189.879C237.291 190.571 233.803 192.237 229.62 192.634C225.438 193.032 221.376 192.275 220.923 192.057C220.471 191.839 220.813 189.198 221.688 188.052Z" fill="#3A374C"></path><path d="M189.726 201.505C189.113 200.928 211.443 195.115 211.443 195.115C211.443 195.115 221.678 186.291 213.685 178.802C213.685 178.802 209.693 174.836 198.956 182.107C186.72 186.736 178.989 189.094 161.264 190.788C143.539 192.473 130.067 191.262 124.075 210.604C124.075 210.604 119.832 229.075 125.321 237.889C123.572 247.811 121.441 251.778 122.506 252.885C123.572 253.993 183.473 258.178 183.473 258.178L181.975 241.202L256.112 217.95C256.112 217.95 302.792 198.429 305.285 194.234C307.779 190.05 305.034 182.694 300.047 180.857C297.554 180.857 290.567 183.65 290.567 183.65C290.567 183.65 265.11 194.897 262.114 197.539C249.637 200.407 224.171 204.876 224.171 204.876C224.171 204.876 197.216 208.559 189.726 201.505Z" fill="#FDA089"></path><path d="M234.154 198.646C244.671 193.127 256.816 187.91 267.744 183.044C271.434 181.359 275.375 179.778 278.834 177.704C277.356 179.087 275.586 180.261 273.857 181.321C268.589 184.53 262.969 187.2 257.329 189.756C249.768 193.089 242.097 196.194 234.154 198.656V198.646Z" fill="#D4745E"></path><path d="M124.577 237.889L183.242 241.42L184.669 261.671L122.828 260.156L121.34 249.023L124.577 237.889Z" fill="white"></path><path d="M15.6639 297.553C15.6639 297.553 29.3372 284.137 51.2144 291.92C54.2506 281.723 58.5034 264.01 81.8988 265.884C105.294 267.759 107.114 275.011 115.016 290.575C130.509 288.966 150.265 286.817 152.386 310.163C166.06 296.473 179.733 273.127 218.923 283.598C220.139 269.378 224.392 242.537 267.835 255.688C311.278 268.838 309.759 282.528 309.759 282.528L323.131 292.459C323.131 292.459 331.335 265.354 376.306 269.378C376.306 269.378 408.207 270.182 412.158 294.608C427.953 294.069 455.299 291.389 470.792 316.346C476.563 312.852 494.489 276.317 519.403 284.251C544.316 292.185 560.422 316.346 560.422 316.346L561.639 346.14C561.639 346.14 7.76158 359.29 9.27972 358.22C10.7978 357.15 -1.0456 330.017 0.160866 328.691C1.36733 327.366 15.6539 297.572 15.6539 297.572L15.6639 297.553Z" fill="#91DDF2"></path><path d="M118.967 247.811L187.354 256.852L195.457 388.213L114.343 389.539L118.967 247.811Z" fill="#57595B"></path><path opacity="0.69" d="M188.6 310.76C188.6 310.76 203.088 295.3 228.444 299.03C232.666 289.43 236.296 279.3 258.625 280.095C280.965 280.89 284.283 299.825 284.283 299.825C284.283 299.825 307.527 290.755 318.989 314.49L338.604 329.155L408.931 324.62C408.931 324.62 420.442 297.42 430.084 296.89C439.726 296.36 443.043 297.96 443.043 297.96C443.043 297.96 439.424 285.34 458.738 280.048C472.019 280.048 476.845 285.69 479.559 292.885C488.618 291.285 501.597 290.216 508.233 303.281C514.868 316.346 530.874 335.546 530.874 335.546L176.827 351.006L29.5382 334.476C29.5382 334.476 27.1253 301.151 57.307 301.416C60.6248 291.285 78.7418 276.355 95.6424 289.685C112.543 303.016 104.098 315.522 104.098 315.522C104.098 315.522 159.635 330.471 161.143 330.206C162.651 329.941 188.61 310.741 188.61 310.741L188.6 310.76Z" fill="#BDF3FF"></path><path d="M17.4434 329.051C17.4434 329.051 21.6258 311.309 46.7404 313.032C52.0388 295.783 57.0657 276.071 91.098 277.548C125.13 279.025 120.948 312.294 120.948 312.294C120.948 312.294 141.317 296.029 160.289 315.74C179.26 335.451 132.108 340.384 131.273 340.384C130.439 340.384 17.4535 329.051 17.4535 329.051H17.4434Z" fill="white"></path><path d="M235.793 318.391C235.793 318.391 248.35 307.551 274.852 309.52C301.354 311.489 317.26 319.868 317.26 319.868L324.237 330.954C324.237 330.954 277.366 348.45 272.902 348.204C268.438 347.958 235.793 318.381 235.793 318.381V318.391Z" fill="white"></path><path d="M399.209 326.618C399.209 326.618 395.861 313.553 426.545 310.845C457.229 308.137 456.676 338.935 456.676 338.935C456.676 338.935 393.066 351.754 394.463 348.791C395.861 345.827 399.209 326.608 399.209 326.608V326.618Z" fill="white"></path><path opacity="0.24" d="M391.427 240.824H438.087C438.087 240.824 441.013 228.44 426.786 229.737C426.786 229.737 420.855 223.148 413.465 224.748C406.075 226.348 405.794 232.076 405.794 232.663C405.794 232.663 397.007 229.434 393.87 234.178C390.733 238.921 391.427 240.833 391.427 240.833V240.824Z" fill="white"></path><path opacity="0.24" d="M435.513 205.879H495.776C495.776 205.879 499.556 189.889 481.188 191.555C481.188 191.555 473.527 183.044 463.986 185.108C454.444 187.172 454.083 194.566 454.083 195.333C454.083 195.333 442.732 191.158 438.68 197.283C434.628 203.408 435.523 205.879 435.523 205.879H435.513Z" fill="white"></path><path opacity="0.24" d="M59.5188 243.2H119.782C119.782 243.2 123.562 227.21 105.194 228.876C105.194 228.876 97.5325 220.365 87.9913 222.429C78.4402 224.502 78.0883 231.887 78.0883 232.654C78.0883 232.654 66.7375 228.478 62.6858 234.604C58.6341 240.729 59.5289 243.2 59.5289 243.2H59.5188Z" fill="white"></path><path opacity="0.24" d="M137.145 309.652H197.408C197.408 309.652 201.188 293.662 182.819 295.328C182.819 295.328 175.158 286.817 165.617 288.881C156.066 290.954 155.714 298.339 155.714 299.105C155.714 299.105 144.363 294.93 140.312 301.056C136.26 307.181 137.155 309.652 137.155 309.652H137.145Z" fill="white"></path><path opacity="0.24" d="M15.7343 303.29H75.9971C75.9971 303.29 79.7774 287.3 61.409 288.966C61.409 288.966 53.7479 280.455 44.2068 282.519C34.6556 284.592 34.3037 291.976 34.3037 292.743C34.3037 292.743 22.9529 288.568 18.9012 294.694C14.8495 300.819 15.7443 303.29 15.7443 303.29H15.7343Z" fill="white"></path></g></g><defs><clipPath id="clip0_874_220"><rect width="560" height="320" fill="white"></rect></clipPath></defs></svg>